<svg width="16" height="17" viewBox="0 0 16 17" fill="none" xmlns="http://www.w3.org/2000/svg">
<path d="M13.5302 12.0306L11.5302 14.0306C11.3893 14.1715 11.1982 14.2506 10.9989 14.2506C10.7997 14.2506 10.6086 14.1715 10.4677 14.0306C10.3268 13.8897 10.2476 13.6986 10.2476 13.4993C10.2476 13.3001 10.3268 13.109 10.4677 12.9681L11.187 12.25H2.99954C2.80062 12.25 2.60986 12.171 2.46921 12.0303C2.32855 11.8896 2.24954 11.6989 2.24954 11.5C2.24954 11.3011 2.32855 11.1103 2.46921 10.9696C2.60986 10.829 2.80062 10.75 2.99954 10.75H11.187L10.467 10.0306C10.3261 9.8897 10.247 9.69861 10.247 9.49935C10.247 9.30009 10.3261 9.10899 10.467 8.9681C10.6079 8.8272 10.799 8.74805 10.9983 8.74805C11.1975 8.74805 11.3886 8.8272 11.5295 8.9681L13.5295 10.9681C13.5995 11.0377 13.655 11.1205 13.6929 11.2116C13.7308 11.3028 13.7504 11.4005 13.7504 11.4992C13.7505 11.5979 13.7311 11.6957 13.6933 11.7869C13.6555 11.8781 13.6 11.9609 13.5302 12.0306ZM4.46766 8.0306C4.60856 8.17149 4.79965 8.25065 4.99891 8.25065C5.19817 8.25065 5.38927 8.17149 5.53016 8.0306C5.67106 7.8897 5.75021 7.69861 5.75021 7.49935C5.75021 7.30009 5.67106 7.10899 5.53016 6.9681L4.81204 6.24997H12.9995C13.1984 6.24997 13.3892 6.17096 13.5299 6.0303C13.6705 5.88965 13.7495 5.69889 13.7495 5.49997C13.7495 5.30106 13.6705 5.11029 13.5299 4.96964C13.3892 4.82899 13.1984 4.74997 12.9995 4.74997H4.81204L5.53016 4.0306C5.67106 3.8897 5.75021 3.69861 5.75021 3.49935C5.75021 3.30009 5.67106 3.10899 5.53016 2.9681C5.38927 2.8272 5.19817 2.74805 4.99891 2.74805C4.79965 2.74805 4.60856 2.8272 4.46766 2.9681L2.46766 4.9681C2.39774 5.03778 2.34226 5.12057 2.30441 5.21173C2.26656 5.3029 2.24707 5.40064 2.24707 5.49935C2.24707 5.59806 2.26656 5.6958 2.30441 5.78696C2.34226 5.87813 2.39774 5.96092 2.46766 6.0306L4.46766 8.0306Z" fill="#5604F6"/>
</svg>
