<svg width="48" height="48" viewBox="0 0 48 48" fill="none" xmlns="http://www.w3.org/2000/svg">
<rect width="48" height="48" rx="24" fill="white"/>
<rect x="0.5" y="0.5" width="47" height="47" rx="23.5" stroke="#6976EB" stroke-opacity="0.5"/>
<path d="M37 34C37 34.2652 36.8946 34.5196 36.7071 34.7071C36.5196 34.8946 36.2652 35 36 35H12C11.7348 35 11.4804 34.8946 11.2929 34.7071C11.1054 34.5196 11 34.2652 11 34C11 33.7348 11.1054 33.4804 11.2929 33.2929C11.4804 33.1054 11.7348 33 12 33H36C36.2652 33 36.5196 33.1054 36.7071 33.2929C36.8946 33.4804 37 33.7348 37 34ZM37 15V29C37 29.5304 36.7893 30.0391 36.4142 30.4142C36.0391 30.7893 35.5304 31 35 31H13C12.4696 31 11.9609 30.7893 11.5858 30.4142C11.2107 30.0391 11 29.5304 11 29V15C11 14.4696 11.2107 13.9609 11.5858 13.5858C11.9609 13.2107 12.4696 13 13 13H35C35.5304 13 36.0391 13.2107 36.4142 13.5858C36.7893 13.9609 37 14.4696 37 15ZM28.5 22C28.5 21.8393 28.4612 21.681 28.387 21.5385C28.3128 21.396 28.2053 21.2734 28.0737 21.1812L23.0737 17.6812C22.9239 17.5763 22.7482 17.5144 22.5656 17.5024C22.3831 17.4904 22.2008 17.5287 22.0385 17.6132C21.8762 17.6976 21.7402 17.8249 21.6452 17.9813C21.5503 18.1377 21.5001 18.3171 21.5 18.5V25.5C21.5001 25.6829 21.5503 25.8624 21.6452 26.0187C21.7402 26.1751 21.8762 26.3024 22.0385 26.3868C22.2008 26.4713 22.3831 26.5096 22.5656 26.4976C22.7482 26.4856 22.9239 26.4237 23.0737 26.3188L28.0737 22.8188C28.2053 22.7266 28.3128 22.604 28.387 22.4615C28.4612 22.319 28.5 22.1607 28.5 22Z" fill="#6976EB"/>
</svg>
