<svg width="24" height="18" viewBox="0 0 24 18" fill="none" xmlns="http://www.w3.org/2000/svg">
<path d="M18.046 12.7041C18.1508 12.8086 18.2341 12.9328 18.2908 13.0695C18.3476 13.2063 18.3768 13.3529 18.3768 13.5009C18.3768 13.649 18.3476 13.7956 18.2908 13.9324C18.2341 14.0691 18.1508 14.1933 18.046 14.2978L15.046 17.2978C14.9414 17.4027 14.8172 17.4859 14.6805 17.5427C14.5438 17.5995 14.3971 17.6287 14.2491 17.6287C14.101 17.6287 13.9544 17.5995 13.8177 17.5427C13.6809 17.4859 13.5567 17.4027 13.4522 17.2978L10.4522 14.2978C10.3476 14.1932 10.2645 14.0689 10.2079 13.9322C10.1513 13.7955 10.1221 13.6489 10.1221 13.5009C10.1221 13.3529 10.1513 13.2064 10.2079 13.0697C10.2645 12.9329 10.3476 12.8087 10.4522 12.7041C10.5569 12.5994 10.6811 12.5164 10.8178 12.4598C10.9545 12.4031 11.1011 12.374 11.2491 12.374C11.3971 12.374 11.5436 12.4031 11.6803 12.4598C11.8171 12.5164 11.9413 12.5994 12.046 12.7041L13.125 13.7813V9C13.125 8.70163 13.2435 8.41548 13.4545 8.20451C13.6655 7.99353 13.9516 7.875 14.25 7.875C14.5484 7.875 14.8345 7.99353 15.0455 8.20451C15.2565 8.41548 15.375 8.70163 15.375 9V13.7813L16.4541 12.7013C16.5587 12.5968 16.683 12.5141 16.8196 12.4577C16.9563 12.4013 17.1028 12.3724 17.2506 12.3727C17.3984 12.373 17.5448 12.4024 17.6813 12.4592C17.8177 12.5161 17.9417 12.5993 18.046 12.7041ZM15 0.375C13.443 0.375748 11.9151 0.797617 10.5783 1.59592C9.24143 2.39423 8.1454 3.53925 7.40627 4.90969C6.54547 4.81953 5.67533 4.90559 4.84888 5.16264C4.02242 5.41969 3.25697 5.84233 2.59916 6.40481C1.94135 6.96729 1.40496 7.65783 1.02269 8.43434C0.64042 9.21085 0.420272 10.0571 0.375661 10.9214C0.331051 11.7858 0.462914 12.6502 0.763213 13.4619C1.06351 14.2736 1.52596 15.0157 2.12237 15.6429C2.71878 16.2702 3.43666 16.7694 4.23226 17.1101C5.02786 17.4509 5.88451 17.6261 6.75002 17.625H7.87502C8.17339 17.625 8.45953 17.5065 8.67051 17.2955C8.88149 17.0845 9.00002 16.7984 9.00002 16.5C9.00002 16.2016 8.88149 15.9155 8.67051 15.7045C8.45953 15.4935 8.17339 15.375 7.87502 15.375H6.75002C5.67509 15.3684 4.6452 14.9425 3.87963 14.1879C3.11406 13.4333 2.67329 12.4097 2.65117 11.335C2.62905 10.2602 3.02733 9.21934 3.76121 8.43389C4.49509 7.64844 5.50659 7.18049 6.58033 7.12969C6.44367 7.74374 6.37482 8.37093 6.37502 9C6.37502 9.29837 6.49354 9.58452 6.70452 9.7955C6.9155 10.0065 7.20165 10.125 7.50002 10.125C7.79839 10.125 8.08453 10.0065 8.29551 9.7955C8.50649 9.58452 8.62502 9.29837 8.62502 9C8.62502 7.30925 9.29667 5.68774 10.4922 4.49219C11.6878 3.29665 13.3093 2.625 15 2.625C16.6908 2.625 18.3123 3.29665 19.5078 4.49219C20.7034 5.68774 21.375 7.30925 21.375 9C21.3781 9.9962 21.1452 10.979 20.6953 11.8678C20.6263 11.9999 20.5842 12.1444 20.5715 12.2929C20.5587 12.4414 20.5756 12.591 20.6212 12.7329C20.6668 12.8748 20.7401 13.0063 20.8369 13.1196C20.9337 13.2329 21.0521 13.3259 21.1851 13.3931C21.3181 13.4603 21.4632 13.5004 21.6119 13.5111C21.7606 13.5217 21.9099 13.5027 22.0511 13.4552C22.1924 13.4077 22.3228 13.3325 22.4348 13.2342C22.5468 13.1358 22.6381 13.0162 22.7035 12.8822C23.3129 11.6791 23.6287 10.3487 23.625 9C23.6225 6.71327 22.713 4.52091 21.0961 2.90394C19.4791 1.28698 17.2867 0.377482 15 0.375Z" fill="white"/>
</svg>
