<svg width="48" height="48" viewBox="0 0 48 48" fill="none" xmlns="http://www.w3.org/2000/svg">
<rect x="0.3" y="0.3" width="47.4" height="47.4" rx="23.7" fill="white"/>
<rect x="0.3" y="0.3" width="47.4" height="47.4" rx="23.7" stroke="#FCE4B1" stroke-width="0.6"/>
<path d="M35.96 15.7688L24.96 9.75002C24.6661 9.58763 24.3358 9.50244 24 9.50244C23.6642 9.50244 23.3339 9.58763 23.04 9.75002L12.04 15.7713C11.7259 15.9432 11.4636 16.1962 11.2807 16.5041C11.0978 16.8119 11.0008 17.1632 11 17.5213V29.4763C11.0008 29.8344 11.0978 30.1857 11.2807 30.4935C11.4636 30.8013 11.7259 31.0544 12.04 31.2263L23.04 37.2475C23.3339 37.4099 23.6642 37.4951 24 37.4951C24.3358 37.4951 24.6661 37.4099 24.96 37.2475L35.96 31.2263C36.2741 31.0544 36.5364 30.8013 36.7193 30.4935C36.9022 30.1857 36.9992 29.8344 37 29.4763V17.5225C36.9999 17.1638 36.9032 16.8117 36.7203 16.5032C36.5373 16.1946 36.2747 15.941 35.96 15.7688ZM24 22.5L13.9562 17L24 11.5L34.0437 17L24 22.5ZM25 34.955V24.2288L35 18.7563V29.4763L25 34.955Z" fill="#F6A704"/>
</svg>
