<svg width="53" height="37" viewBox="0 0 53 37" fill="none" xmlns="http://www.w3.org/2000/svg">
<g opacity="0.7">
<path d="M52.721 28.6406C50.0031 29.801 47.5973 29.8875 44.7295 29.1953C44.286 29.2679 44.8639 29.6588 45.0076 29.7809C46.3225 30.8208 48.4641 30.847 50.1545 30.7589C46.0583 33.1385 40.8419 35.1765 36.0937 34.6511C30.5807 34.1521 24.8776 30.212 24.3136 24.41C27.7283 23.197 31.1879 21.0879 32.9463 17.8014C34.8097 13.3591 30.2114 11.1125 26.4845 13.8057C23.4622 15.9905 21.8815 19.7467 21.761 23.4365C7.43757 26.3244 -1.89816 13.8845 1.09941 0.393879C1.10375 0.377426 1.10469 0.360261 1.10217 0.343433C1.09966 0.326605 1.09373 0.310466 1.08477 0.296005C1.0758 0.281543 1.06398 0.269062 1.05003 0.259323C1.03607 0.249585 1.02028 0.242794 1.00361 0.239365C0.987583 0.234945 0.970831 0.233764 0.954338 0.235892C0.937845 0.238019 0.921941 0.243412 0.907555 0.251755C0.89317 0.260099 0.880591 0.271226 0.870555 0.284486C0.860519 0.297745 0.853225 0.312873 0.849101 0.328983C-2.90404 14.3341 6.91686 27.5095 21.8522 25.0404C22.3389 29.3374 25.3952 33.0118 29.1978 34.8783C35.9701 38.3069 44.8562 35.9738 50.5609 31.3971C50.4156 32.1697 49.9814 32.8619 49.8331 33.6314C49.66 34.5322 50.0015 36.1808 50.411 35.6709C50.5927 34.8117 50.8402 33.9676 51.1511 33.1462C51.4509 32.3103 51.8155 31.3755 52.1539 30.555L52.2219 30.4005L52.8925 28.8275C52.9038 28.8029 52.9076 28.7755 52.9035 28.7487C52.8993 28.7219 52.8873 28.6969 52.8689 28.677C52.8506 28.657 52.8268 28.6429 52.8004 28.6364C52.7741 28.6299 52.7465 28.6314 52.721 28.6406ZM25.9422 17.7334C28.246 13.3066 33.5133 14.0467 30.4818 18.214C28.8184 20.1792 26.6953 21.703 24.3012 22.6501C24.4636 20.907 25.0251 19.2246 25.9422 17.7334Z" fill="white"/>
<path d="M3.16442 20.7171C3.17541 20.7037 3.1896 20.6933 3.20567 20.6868C3.22175 20.6802 3.2392 20.6779 3.25643 20.6799C3.27366 20.6819 3.29011 20.6882 3.30427 20.6982C3.31843 20.7082 3.32985 20.7216 3.33747 20.7372C4.74819 23.5679 7.90491 25.6028 10.7032 25.813C10.7283 25.8146 10.7519 25.8257 10.7691 25.844C10.7863 25.8624 10.7959 25.8867 10.7959 25.9119C10.7956 25.9371 10.787 25.9616 10.7713 25.9815C10.7556 26.0013 10.7339 26.0154 10.7093 26.0216C7.49081 26.8127 4.21975 23.7502 3.13815 20.9118C3.12555 20.8794 3.12192 20.8443 3.12763 20.81C3.13334 20.7757 3.14818 20.7436 3.1706 20.7171H3.16442Z" fill="white"/>
<path d="M33.3251 11.3675C35.1669 11.1636 36.3088 13.4921 35.4373 15.0187C35.4317 15.0292 35.4228 15.0374 35.4119 15.0422C35.4011 15.0469 35.3889 15.0478 35.3774 15.0448C35.366 15.0417 35.3559 15.0349 35.3488 15.0254C35.3417 15.0159 35.3381 15.0043 35.3384 14.9924C35.3384 13.489 34.7667 12.0567 33.3127 11.4695C33.3014 11.4656 33.2917 11.4579 33.2853 11.4477C33.279 11.4375 33.2763 11.4255 33.2777 11.4135C33.2792 11.4016 33.2847 11.3905 33.2933 11.3821C33.3019 11.3738 33.3131 11.3686 33.3251 11.3675Z" fill="white"/>
<path d="M2.81325 19.773C2.6667 19.7857 2.52068 19.7433 2.40379 19.654C2.31524 19.5903 2.24793 19.5015 2.21064 19.399C2.17481 19.2998 2.16996 19.192 2.19674 19.09C2.23257 18.9515 2.31027 18.8274 2.41924 18.7346C2.54989 18.7704 2.67187 18.8324 2.77771 18.9169C2.84919 18.9735 2.90342 19.0489 2.93428 19.1346C2.96514 19.2203 2.97138 19.313 2.95231 19.4021C2.92289 19.5314 2.87611 19.6562 2.81325 19.773Z" fill="white"/>
<path d="M35.2332 15.9997C35.2347 15.991 35.2389 15.983 35.2453 15.9768C35.2517 15.9706 35.2599 15.9667 35.2686 15.9655C35.2774 15.9643 35.2864 15.9659 35.2941 15.9701C35.3019 15.9743 35.3082 15.9809 35.312 15.9889C35.3544 16.0731 35.3791 16.1652 35.3846 16.2593C35.3913 16.3867 35.3735 16.5141 35.3321 16.6348C35.2909 16.7549 35.2263 16.8657 35.142 16.9608C35.0804 17.0322 35.0046 17.0901 34.9195 17.1308C34.9117 17.1341 34.903 17.135 34.8947 17.1335C34.8863 17.1319 34.8786 17.1279 34.8725 17.122C34.8664 17.116 34.8621 17.1084 34.8603 17.1001C34.8586 17.0918 34.8593 17.0831 34.8624 17.0751C34.901 16.9948 34.9319 16.9206 34.9628 16.8465C35.0045 16.746 35.04 16.6456 35.0756 16.5452C35.1111 16.4447 35.1436 16.3443 35.1729 16.2361C35.1946 16.162 35.2147 16.0863 35.2332 15.9997Z" fill="white"/>
<path d="M34.4779 32.7678C36.8744 33.3689 40.3216 33.2406 42.5281 32.0957C42.5328 32.0924 42.5386 32.0911 42.5443 32.0921C42.5499 32.0932 42.5549 32.0964 42.5582 32.1011C42.5615 32.1058 42.5628 32.1116 42.5618 32.1173C42.5607 32.1229 42.5575 32.1279 42.5528 32.1312C40.6554 33.7984 36.6643 33.9761 34.464 32.808C34.4596 32.8055 34.4563 32.8015 34.4545 32.7968C34.4527 32.7921 34.4527 32.7869 34.4543 32.7821C34.456 32.7774 34.4592 32.7733 34.4635 32.7707C34.4678 32.7681 34.4729 32.7671 34.4779 32.7678Z" fill="white"/>
</g>
</svg>
