<svg width="48" height="48" viewBox="0 0 48 48" fill="none" xmlns="http://www.w3.org/2000/svg">
<rect x="0.3" y="0.3" width="47.4" height="47.4" rx="23.7" fill="white"/>
<rect x="0.3" y="0.3" width="47.4" height="47.4" rx="23.7" stroke="#CBB1FC" stroke-width="0.6"/>
<path d="M34.7075 17.7925L27.7075 10.7925C27.6146 10.6997 27.5042 10.6261 27.3829 10.5759C27.2615 10.5257 27.1314 10.4999 27 10.5H15C14.4696 10.5 13.9609 10.7107 13.5858 11.0858C13.2107 11.4609 13 11.9696 13 12.5V34.5C13 35.0304 13.2107 35.5391 13.5858 35.9142C13.9609 36.2893 14.4696 36.5 15 36.5H33C33.5304 36.5 34.0391 36.2893 34.4142 35.9142C34.7893 35.5391 35 35.0304 35 34.5V18.5C35.0001 18.3686 34.9743 18.2385 34.9241 18.1172C34.8739 17.9958 34.8003 17.8854 34.7075 17.7925ZM27 18.5V13L32.5 18.5H27Z" fill="#5604F6"/>
</svg>
