<svg width="25" height="24" viewBox="0 0 25 24" fill="none" xmlns="http://www.w3.org/2000/svg">
<path d="M13.9578 12.75H15.5V14.9062L13.9578 12.75ZM9.5 11.25H11.0422L9.5 9.09375V11.25ZM22.25 12C22.25 13.9284 21.6782 15.8134 20.6068 17.4168C19.5355 19.0202 18.0127 20.2699 16.2312 21.0078C14.4496 21.7458 12.4892 21.9389 10.5979 21.5627C8.70656 21.1865 6.96928 20.2579 5.60571 18.8943C4.24215 17.5307 3.31355 15.7934 2.93735 13.9021C2.56114 12.0108 2.75422 10.0504 3.49218 8.26884C4.23013 6.48726 5.47982 4.96451 7.08319 3.89317C8.68657 2.82183 10.5716 2.25 12.5 2.25C15.085 2.25273 17.5634 3.28084 19.3913 5.10872C21.2192 6.93661 22.2473 9.41498 22.25 12ZM19.25 12C19.25 11.8011 19.171 11.6103 19.0303 11.4697C18.8897 11.329 18.6989 11.25 18.5 11.25H17V6.75C17 6.55109 16.921 6.36032 16.7803 6.21967C16.6397 6.07902 16.4489 6 16.25 6C16.0511 6 15.8603 6.07902 15.7197 6.21967C15.579 6.36032 15.5 6.55109 15.5 6.75V11.25H12.8863L9.36032 6.31406C9.26796 6.18475 9.13692 6.08812 8.98609 6.0381C8.83526 5.98808 8.67244 5.98726 8.52112 6.03575C8.36979 6.08425 8.23778 6.17955 8.14412 6.30792C8.05046 6.43629 8 6.59109 8 6.75V11.25H6.5C6.30109 11.25 6.11033 11.329 5.96967 11.4697C5.82902 11.6103 5.75 11.8011 5.75 12C5.75 12.1989 5.82902 12.3897 5.96967 12.5303C6.11033 12.671 6.30109 12.75 6.5 12.75H8V17.25C8 17.4489 8.07902 17.6397 8.21967 17.7803C8.36033 17.921 8.55109 18 8.75 18C8.94892 18 9.13968 17.921 9.28033 17.7803C9.42099 17.6397 9.5 17.4489 9.5 17.25V12.75H12.1138L15.6397 17.6859C15.7091 17.7831 15.8007 17.8623 15.9068 17.9169C16.013 17.9715 16.1306 18 16.25 18C16.3276 18.0002 16.4048 17.9882 16.4788 17.9644C16.6301 17.9159 16.7622 17.8206 16.8559 17.6922C16.9496 17.5638 17 17.4089 17 17.25V12.75H18.5C18.6989 12.75 18.8897 12.671 19.0303 12.5303C19.171 12.3897 19.25 12.1989 19.25 12Z" fill="#127123"/>
</svg>
