<svg width="48" height="48" viewBox="0 0 48 48" fill="none" xmlns="http://www.w3.org/2000/svg">
<rect width="48" height="48" rx="24" fill="white"/>
<rect x="0.3" y="0.3" width="47.4" height="47.4" rx="23.7" stroke="#0496FF" stroke-opacity="0.5" stroke-width="0.6"/>
<path d="M26.7838 13.7415C26.8177 13.6146 26.8763 13.4956 26.9563 13.3913C27.0362 13.2871 27.1359 13.1996 27.2497 13.1339C27.3634 13.0682 27.489 13.0256 27.6193 13.0084C27.7495 12.9913 27.8819 13 28.0088 13.034C29.8626 13.5177 31.554 14.4868 32.9087 15.8415C34.2635 17.1963 35.2326 18.8877 35.7163 20.7415C35.7503 20.8684 35.759 21.0007 35.7418 21.131C35.7247 21.2612 35.682 21.3868 35.6163 21.5006C35.5506 21.6143 35.4631 21.714 35.3589 21.794C35.2547 21.8739 35.1357 21.9325 35.0088 21.9665C34.9243 21.9887 34.8373 22 34.75 22.0002C34.5298 22.0003 34.3157 21.9277 34.141 21.7937C33.9663 21.6596 33.8407 21.4717 33.7838 21.259C33.3895 19.7454 32.5986 18.3644 31.4928 17.2583C30.3869 16.1522 29.006 15.3611 27.4925 14.9665C27.3655 14.9327 27.2464 14.8742 27.142 14.7943C27.0376 14.7144 26.95 14.6147 26.8842 14.5009C26.8183 14.3872 26.7756 14.2615 26.7584 14.1312C26.7411 14.0009 26.7498 13.8685 26.7838 13.7415ZM26.4925 18.9665C28.2163 19.4265 29.3238 20.5352 29.7838 22.259C29.8407 22.4717 29.9663 22.6596 30.141 22.7937C30.3157 22.9277 30.5298 23.0003 30.75 23.0002C30.8373 23 30.9243 22.9887 31.0088 22.9665C31.1357 22.9325 31.2547 22.8739 31.3589 22.794C31.4631 22.714 31.5506 22.6143 31.6163 22.5006C31.682 22.3868 31.7247 22.2612 31.7418 22.131C31.759 22.0007 31.7503 21.8684 31.7163 21.7415C31.0763 19.3465 29.4038 17.674 27.0088 17.034C26.7525 16.9655 26.4795 17.0017 26.2499 17.1345C26.0203 17.2673 25.8528 17.4858 25.7844 17.7421C25.7159 17.9984 25.7521 18.2713 25.8849 18.501C26.0177 18.7306 26.2362 18.898 26.4925 18.9665ZM35.5463 28.8077L29.6575 26.169L29.6413 26.1615C29.3356 26.0307 29.0021 25.9783 28.671 26.0088C28.3399 26.0394 28.0216 26.152 27.745 26.3365C27.7124 26.358 27.6811 26.3814 27.6513 26.4065L24.6088 29.0002C22.6813 28.064 20.6913 26.089 19.755 24.1865L22.3525 21.0977C22.3775 21.0665 22.4013 21.0352 22.4238 21.0015C22.6043 20.7256 22.7138 20.4094 22.7426 20.081C22.7714 19.7525 22.7186 19.4221 22.5888 19.119V19.104L19.9425 13.2052C19.7709 12.8093 19.4759 12.4795 19.1015 12.265C18.7271 12.0506 18.2933 11.9629 17.865 12.0152C16.1712 12.2381 14.6165 13.0699 13.4912 14.3554C12.3659 15.6408 11.7469 17.2919 11.75 19.0002C11.75 28.9252 19.825 37.0002 29.75 37.0002C31.4584 37.0033 33.1095 36.3844 34.3949 35.2591C35.6803 34.1338 36.5121 32.579 36.735 30.8852C36.7874 30.4571 36.7 30.0234 36.4857 29.649C36.2715 29.2746 35.9419 28.9795 35.5463 28.8077Z" fill="#0496FF"/>
</svg>
