<svg width="25" height="24" viewBox="0 0 25 24" fill="none" xmlns="http://www.w3.org/2000/svg">
<path d="M13.9419 1.67329C13.8494 1.59642 13.7398 1.5429 13.6224 1.51726C13.5049 1.49161 13.383 1.49459 13.2669 1.52593C13.1508 1.55727 13.044 1.61606 12.9554 1.69734C12.8668 1.77862 12.799 1.88002 12.7578 1.99297L10.6953 7.65641L8.43031 5.46172C8.35425 5.38795 8.26341 5.33113 8.16379 5.29501C8.06417 5.25889 7.95802 5.24429 7.85235 5.25217C7.74667 5.26005 7.64387 5.29024 7.55071 5.34074C7.45755 5.39124 7.37615 5.46091 7.31188 5.54516C5.28125 8.20579 4.25 10.8823 4.25 13.4998C4.25 15.6879 5.11919 17.7863 6.66637 19.3335C8.21354 20.8807 10.312 21.7498 12.5 21.7498C14.688 21.7498 16.7865 20.8807 18.3336 19.3335C19.8808 17.7863 20.75 15.6879 20.75 13.4998C20.75 7.92641 15.9884 3.37485 13.9419 1.67329ZM17.7397 14.3755C17.5452 15.4618 17.0226 16.4624 16.2422 17.2426C15.4618 18.0229 14.461 18.5453 13.3747 18.7395C13.3335 18.7466 13.2918 18.75 13.25 18.7498C13.0619 18.7498 12.8806 18.679 12.7422 18.5516C12.6038 18.4242 12.5183 18.2494 12.5028 18.0619C12.4872 17.8745 12.5426 17.688 12.6581 17.5394C12.7736 17.3909 12.9407 17.2913 13.1262 17.2602C14.6797 16.9986 15.9978 15.6805 16.2612 14.1242C16.2946 13.928 16.4045 13.7531 16.5667 13.638C16.729 13.5228 16.9304 13.4768 17.1266 13.5102C17.3227 13.5435 17.4976 13.6534 17.6128 13.8156C17.728 13.9779 17.7739 14.1793 17.7406 14.3755H17.7397Z" fill="#ED0423"/>
</svg>
