<svg width="25" height="24" viewBox="0 0 25 24" fill="none" xmlns="http://www.w3.org/2000/svg">
<rect x="1" y="0.5" width="23" height="23" rx="11.5" fill="#FF8C00" fill-opacity="0.1"/>
<rect x="1" y="0.5" width="23" height="23" rx="11.5" stroke="#FF8C00"/>
<path d="M18 9.99936C18.0006 9.07249 17.7669 8.16051 17.3206 7.34812C16.8744 6.53574 16.2301 5.84931 15.4475 5.35259C14.665 4.85587 13.7696 4.56496 12.8446 4.5069C11.9195 4.44883 10.9948 4.62549 10.1563 5.02046C9.31777 5.41543 8.59268 6.01591 8.04835 6.76611C7.50403 7.51631 7.15812 8.39191 7.04276 9.31158C6.92741 10.2312 7.04634 11.1652 7.38852 12.0266C7.7307 12.888 8.28502 13.6489 9 14.2387V18.9994C8.99994 19.0846 9.02169 19.1685 9.06318 19.243C9.10467 19.3175 9.16452 19.3801 9.23705 19.425C9.30958 19.4698 9.39237 19.4954 9.47756 19.4992C9.56274 19.503 9.64749 19.485 9.72375 19.4469L12.5 18.0619L15.2769 19.45C15.3465 19.4833 15.4228 19.5002 15.5 19.4994C15.6326 19.4994 15.7598 19.4467 15.8536 19.3529C15.9473 19.2591 16 19.132 16 18.9994V14.2387C16.6256 13.7235 17.1293 13.0762 17.4751 12.3432C17.8209 11.6102 18.0002 10.8098 18 9.99936ZM8 9.99936C8 9.10934 8.26392 8.23932 8.75839 7.49929C9.25285 6.75927 9.95566 6.1825 10.7779 5.8419C11.6002 5.50131 12.505 5.41219 13.3779 5.58583C14.2508 5.75946 15.0526 6.18804 15.682 6.81738C16.3113 7.44672 16.7399 8.24854 16.9135 9.12145C17.0872 9.99437 16.9981 10.8992 16.6575 11.7214C16.3169 12.5437 15.7401 13.2465 15.0001 13.741C14.26 14.2354 13.39 14.4994 12.5 14.4994C11.3069 14.498 10.1631 14.0235 9.31948 13.1799C8.47586 12.3363 8.00132 11.1924 8 9.99936ZM9 9.99936C9 9.30713 9.20527 8.63044 9.58986 8.05486C9.97444 7.47929 10.5211 7.03069 11.1606 6.76578C11.8002 6.50087 12.5039 6.43156 13.1828 6.56661C13.8618 6.70166 14.4854 7.035 14.9749 7.52449C15.4644 8.01397 15.7977 8.63761 15.9328 9.31654C16.0678 9.99548 15.9985 10.6992 15.7336 11.3388C15.4687 11.9783 15.0201 12.5249 14.4445 12.9095C13.8689 13.2941 13.1922 13.4994 12.5 13.4994C11.572 13.4984 10.6824 13.1293 10.0262 12.4731C9.37006 11.817 9.00099 10.9273 9 9.99936Z" fill="#FF8C00"/>
</svg>
