<svg width="25" height="24" viewBox="0 0 25 24" fill="none" xmlns="http://www.w3.org/2000/svg">
<rect x="0.5" width="24" height="24" rx="12" fill="#ED0423" fill-opacity="0.1"/>
<rect x="1" y="0.5" width="23" height="23" rx="11.5" stroke="#ED0423" stroke-opacity="0.15"/>
<path d="M18.48 8.13317L12.98 5.12379C12.833 5.04259 12.6679 5 12.5 5C12.3321 5 12.167 5.04259 12.02 5.12379L6.52 8.13442C6.36293 8.22036 6.23181 8.34689 6.14034 8.50081C6.04888 8.65472 6.00041 8.83037 6 9.00942V14.9869C6.00041 15.166 6.04888 15.3416 6.14034 15.4955C6.23181 15.6494 6.36293 15.776 6.52 15.8619L12.02 18.8725C12.167 18.9537 12.3321 18.9963 12.5 18.9963C12.6679 18.9963 12.833 18.9537 12.98 18.8725L18.48 15.8619C18.6371 15.776 18.7682 15.6494 18.8597 15.4955C18.9511 15.3416 18.9996 15.166 19 14.9869V9.01004C18.9999 8.83068 18.9516 8.65464 18.8601 8.50036C18.7686 8.34609 18.6373 8.21926 18.48 8.13317ZM12.5 5.99879L17.5219 8.74879L15.6606 9.76692L10.6388 7.01692L12.5 5.99879ZM12.5 11.4988L7.47813 8.74879L9.5975 7.58817L14.6194 10.3382L12.5 11.4988ZM18 14.9894L13 17.7263V12.3632L15 11.2688V13.4988C15 13.6314 15.0527 13.7586 15.1464 13.8523C15.2402 13.9461 15.3674 13.9988 15.5 13.9988C15.6326 13.9988 15.7598 13.9461 15.8536 13.8523C15.9473 13.7586 16 13.6314 16 13.4988V10.7213L18 9.62692V14.9869V14.9894Z" fill="#ED0423"/>
</svg>
