<svg width="21" height="22" viewBox="0 0 21 22" fill="none" xmlns="http://www.w3.org/2000/svg">
<path d="M20.5622 9.94181L11.5575 0.936189C11.2765 0.656813 10.8963 0.5 10.5 0.5C10.1038 0.5 9.72358 0.656813 9.44254 0.936189L0.442537 9.94181C0.16316 10.2229 0.00634766 10.603 0.00634766 10.9993C0.00634766 11.3956 0.16316 11.7758 0.442537 12.0568L9.44722 21.0624C9.72827 21.3418 10.1084 21.4986 10.5047 21.4986C10.901 21.4986 11.2812 21.3418 11.5622 21.0624L20.5669 12.0568C20.8463 11.7758 21.0031 11.3956 21.0031 10.9993C21.0031 10.603 20.8463 10.2229 20.5669 9.94181H20.5622ZM9.75004 6.49931C9.75004 6.3004 9.82906 6.10964 9.96971 5.96898C10.1104 5.82833 10.3011 5.74931 10.5 5.74931C10.6989 5.74931 10.8897 5.82833 11.0304 5.96898C11.171 6.10964 11.25 6.3004 11.25 6.49931V11.7493C11.25 11.9482 11.171 12.139 11.0304 12.2796C10.8897 12.4203 10.6989 12.4993 10.5 12.4993C10.3011 12.4993 10.1104 12.4203 9.96971 12.2796C9.82906 12.139 9.75004 11.9482 9.75004 11.7493V6.49931ZM10.5 16.2493C10.2775 16.2493 10.06 16.1833 9.87502 16.0597C9.69002 15.9361 9.54582 15.7604 9.46067 15.5548C9.37552 15.3493 9.35325 15.1231 9.39665 14.9048C9.44006 14.6866 9.54721 14.4862 9.70454 14.3288C9.86188 14.1715 10.0623 14.0643 10.2806 14.0209C10.4988 13.9775 10.725 13.9998 10.9306 14.0849C11.1361 14.1701 11.3118 14.3143 11.4354 14.4993C11.5591 14.6843 11.625 14.9018 11.625 15.1243C11.625 15.4227 11.5065 15.7088 11.2955 15.9198C11.0846 16.1308 10.7984 16.2493 10.5 16.2493Z" fill="#F68D2B"/>
</svg>
