<svg width="16" height="17" viewBox="0 0 16 17" fill="none" xmlns="http://www.w3.org/2000/svg">
<path d="M13.5 3.5H11.25V2.75C11.25 2.28587 11.0656 1.84075 10.7374 1.51256C10.4092 1.18437 9.96413 1 9.5 1H6.5C6.03587 1 5.59075 1.18437 5.26256 1.51256C4.93437 1.84075 4.75 2.28587 4.75 2.75V3.5H2.5C2.30109 3.5 2.11032 3.57902 1.96967 3.71967C1.82902 3.86032 1.75 4.05109 1.75 4.25C1.75 4.44891 1.82902 4.63968 1.96967 4.78033C2.11032 4.92098 2.30109 5 2.5 5H2.75V13.5C2.75 13.8315 2.8817 14.1495 3.11612 14.3839C3.35054 14.6183 3.66848 14.75 4 14.75H12C12.3315 14.75 12.6495 14.6183 12.8839 14.3839C13.1183 14.1495 13.25 13.8315 13.25 13.5V5H13.5C13.6989 5 13.8897 4.92098 14.0303 4.78033C14.171 4.63968 14.25 4.44891 14.25 4.25C14.25 4.05109 14.171 3.86032 14.0303 3.71967C13.8897 3.57902 13.6989 3.5 13.5 3.5ZM6.25 2.75C6.25 2.6837 6.27634 2.62011 6.32322 2.57322C6.37011 2.52634 6.4337 2.5 6.5 2.5H9.5C9.5663 2.5 9.62989 2.52634 9.67678 2.57322C9.72366 2.62011 9.75 2.6837 9.75 2.75V3.5H6.25V2.75ZM11.75 13.25H4.25V5H11.75V13.25ZM7.25 7V11C7.25 11.1989 7.17098 11.3897 7.03033 11.5303C6.88968 11.671 6.69891 11.75 6.5 11.75C6.30109 11.75 6.11032 11.671 5.96967 11.5303C5.82902 11.3897 5.75 11.1989 5.75 11V7C5.75 6.80109 5.82902 6.61032 5.96967 6.46967C6.11032 6.32902 6.30109 6.25 6.5 6.25C6.69891 6.25 6.88968 6.32902 7.03033 6.46967C7.17098 6.61032 7.25 6.80109 7.25 7ZM10.25 7V11C10.25 11.1989 10.171 11.3897 10.0303 11.5303C9.88968 11.671 9.69891 11.75 9.5 11.75C9.30109 11.75 9.11032 11.671 8.96967 11.5303C8.82902 11.3897 8.75 11.1989 8.75 11V7C8.75 6.80109 8.82902 6.61032 8.96967 6.46967C9.11032 6.32902 9.30109 6.25 9.5 6.25C9.69891 6.25 9.88968 6.32902 10.0303 6.46967C10.171 6.61032 10.25 6.80109 10.25 7Z" fill="black"/>
</svg>
