<svg width="36" height="36" viewBox="0 0 36 36" fill="none" xmlns="http://www.w3.org/2000/svg">
<path d="M32.6252 30.3749H25.7852C28.7655 28.4972 30.9675 25.6065 31.9863 22.2346C33.005 18.8627 32.7719 15.2363 31.3299 12.0225C29.8878 8.80876 27.3338 6.22379 24.1377 4.74312C20.9415 3.26244 17.3182 2.98566 13.9343 3.96369C10.5503 4.94171 7.63331 7.10876 5.71985 10.0662C3.8064 13.0236 3.02519 16.5725 3.51994 20.0601C4.01469 23.5476 5.75212 26.7392 8.41262 29.0478C11.0731 31.3563 14.4777 32.6266 18.0002 32.6249H32.6252C32.9236 32.6249 33.2097 32.5063 33.4207 32.2954C33.6317 32.0844 33.7502 31.7982 33.7502 31.4999C33.7502 31.2015 33.6317 30.9153 33.4207 30.7044C33.2097 30.4934 32.9236 30.3749 32.6252 30.3749ZM11.2502 20.8124C10.6939 20.8124 10.1502 20.6474 9.68766 20.3384C9.22515 20.0293 8.86467 19.5901 8.65179 19.0762C8.43892 18.5622 8.38322 17.9967 8.49175 17.4512C8.60027 16.9056 8.86813 16.4045 9.26147 16.0111C9.6548 15.6178 10.1559 15.3499 10.7015 15.2414C11.2471 15.1329 11.8126 15.1886 12.3265 15.4015C12.8404 15.6143 13.2797 15.9748 13.5887 16.4373C13.8978 16.8998 14.0627 17.4436 14.0627 17.9999C14.0627 18.7458 13.7664 19.4612 13.2389 19.9886C12.7115 20.516 11.9961 20.8124 11.2502 20.8124ZM18.0002 27.5624C17.4439 27.5624 16.9002 27.3974 16.4377 27.0884C15.9752 26.7793 15.6147 26.3401 15.4018 25.8262C15.1889 25.3122 15.1332 24.7467 15.2417 24.2012C15.3503 23.6556 15.6181 23.1545 16.0115 22.7611C16.4048 22.3678 16.9059 22.0999 17.4515 21.9914C17.9971 21.8829 18.5626 21.9386 19.0765 22.1515C19.5904 22.3643 20.0297 22.7248 20.3387 23.1873C20.6478 23.6498 20.8127 24.1936 20.8127 24.7499C20.8127 25.4958 20.5164 26.2112 19.9889 26.7386C19.4615 27.266 18.7461 27.5624 18.0002 27.5624ZM18.0002 14.0624C17.4439 14.0624 16.9002 13.8974 16.4377 13.5884C15.9752 13.2793 15.6147 12.8401 15.4018 12.3262C15.1889 11.8122 15.1332 11.2467 15.2417 10.7012C15.3503 10.1556 15.6181 9.65446 16.0115 9.26112C16.4048 8.86779 16.9059 8.59992 17.4515 8.4914C17.9971 8.38288 18.5626 8.43858 19.0765 8.65145C19.5904 8.86432 20.0297 9.22481 20.3387 9.68732C20.6478 10.1498 20.8127 10.6936 20.8127 11.2499C20.8127 11.9958 20.5164 12.7112 19.9889 13.2386C19.4615 13.766 18.7461 14.0624 18.0002 14.0624ZM21.9377 17.9999C21.9377 17.4436 22.1027 16.8998 22.4117 16.4373C22.7207 15.9748 23.16 15.6143 23.6739 15.4015C24.1878 15.1886 24.7533 15.1329 25.2989 15.2414C25.8445 15.3499 26.3456 15.6178 26.7389 16.0111C27.1323 16.4045 27.4001 16.9056 27.5087 17.4512C27.6172 17.9967 27.5615 18.5622 27.3486 19.0762C27.1357 19.5901 26.7753 20.0293 26.3127 20.3384C25.8502 20.6474 25.3065 20.8124 24.7502 20.8124C24.0043 20.8124 23.2889 20.516 22.7615 19.9886C22.234 19.4612 21.9377 18.7458 21.9377 17.9999Z" fill="#4E59C0"/>
</svg>
