<svg width="35" height="22" viewBox="0 0 35 22" fill="none" xmlns="http://www.w3.org/2000/svg">
<path d="M33.5789 2.74672C33.3013 2.60551 32.9899 2.5439 32.6794 2.56872C32.3689 2.59354 32.0714 2.70382 31.8197 2.88734L28.3125 5.43547V3.125C28.3125 2.37908 28.0162 1.66371 27.4887 1.13626C26.9613 0.608816 26.2459 0.3125 25.5 0.3125H3C2.25408 0.3125 1.53871 0.608816 1.01126 1.13626C0.483816 1.66371 0.1875 2.37908 0.1875 3.125V18.875C0.1875 19.6209 0.483816 20.3363 1.01126 20.8637C1.53871 21.3912 2.25408 21.6875 3 21.6875H25.5C26.2459 21.6875 26.9613 21.3912 27.4887 20.8637C28.0162 20.3363 28.3125 19.6209 28.3125 18.875V16.5645L31.8197 19.1155C32.0715 19.2987 32.3691 19.4086 32.6795 19.4332C32.9899 19.4577 33.3011 19.3959 33.5785 19.2545C33.856 19.1132 34.0889 18.8978 34.2515 18.6323C34.4142 18.3668 34.5002 18.0614 34.5 17.75V4.25C34.5 3.93887 34.4139 3.6338 34.2514 3.36851C34.0888 3.10321 33.8561 2.88802 33.5789 2.74672ZM24.9375 18.3125H3.5625V3.6875H24.9375V18.3125ZM31.125 14.4355L28.3125 12.3908V9.60922L31.125 7.56453V14.4355Z" fill="#5604F6"/>
</svg>
