<svg width="25" height="24" viewBox="0 0 25 24" fill="none" xmlns="http://www.w3.org/2000/svg">
<rect x="0.5" width="24" height="24" rx="12" fill="#1D9E34" fill-opacity="0.15"/>
<path d="M18 8H8C7.86739 8 7.74021 7.94732 7.64645 7.85355C7.55268 7.75979 7.5 7.63261 7.5 7.5C7.5 7.36739 7.55268 7.24021 7.64645 7.14645C7.74021 7.05268 7.86739 7 8 7H16.5C16.6326 7 16.7598 6.94732 16.8536 6.85355C16.9473 6.75979 17 6.63261 17 6.5C17 6.36739 16.9473 6.24021 16.8536 6.14645C16.7598 6.05268 16.6326 6 16.5 6H8C7.60218 6 7.22064 6.15804 6.93934 6.43934C6.65804 6.72064 6.5 7.10218 6.5 7.5V15.5C6.5 15.8978 6.65804 16.2794 6.93934 16.5607C7.22064 16.842 7.60218 17 8 17H18C18.2652 17 18.5196 16.8946 18.7071 16.7071C18.8946 16.5196 19 16.2652 19 16V9C19 8.73478 18.8946 8.48043 18.7071 8.29289C18.5196 8.10536 18.2652 8 18 8ZM15.75 13C15.6017 13 15.4567 12.956 15.3333 12.8736C15.21 12.7912 15.1139 12.6741 15.0571 12.537C15.0003 12.4 14.9855 12.2492 15.0144 12.1037C15.0434 11.9582 15.1148 11.8246 15.2197 11.7197C15.3246 11.6148 15.4582 11.5433 15.6037 11.5144C15.7492 11.4855 15.9 11.5003 16.037 11.5571C16.1741 11.6139 16.2912 11.71 16.3736 11.8333C16.456 11.9567 16.5 12.1017 16.5 12.25C16.5 12.4489 16.421 12.6397 16.2803 12.7803C16.1397 12.921 15.9489 13 15.75 13Z" fill="#1D9E34"/>
</svg>
