<svg width="24" height="25" viewBox="0 0 24 25" fill="none" xmlns="http://www.w3.org/2000/svg">
<path d="M14.3044 14.1152L16.4606 15.1915C16.3584 15.7022 16.0822 16.1616 15.679 16.4914C15.2759 16.8212 14.7708 17.0009 14.25 16.9999C12.4604 16.9979 10.7447 16.2861 9.47922 15.0207C8.21378 13.7552 7.50198 12.0395 7.5 10.2499C7.49985 9.72971 7.67997 9.22553 8.00968 8.82316C8.3394 8.4208 8.79835 8.14512 9.30844 8.04303L10.3847 10.1993L9.46875 11.5624C9.40031 11.6651 9.35825 11.783 9.34631 11.9059C9.33437 12.0287 9.35292 12.1525 9.40031 12.2665C9.93692 13.5418 10.9515 14.5564 12.2269 15.093C12.3411 15.1425 12.466 15.1628 12.59 15.152C12.7141 15.1412 12.8335 15.0997 12.9375 15.0312L14.3044 14.1152ZM21.75 12.4999C21.7504 14.1832 21.3149 15.838 20.486 17.303C19.6572 18.7681 18.4631 19.9937 17.02 20.8604C15.577 21.7271 13.9341 22.2054 12.2514 22.2488C10.5686 22.2922 8.9033 21.8992 7.4175 21.108L4.22531 22.1721C3.96102 22.2602 3.6774 22.273 3.40624 22.209C3.13509 22.145 2.88711 22.0068 2.69011 21.8098C2.49311 21.6128 2.35486 21.3648 2.29087 21.0937C2.22688 20.8225 2.23967 20.5389 2.32781 20.2746L3.39187 17.0824C2.69639 15.7748 2.30793 14.326 2.256 12.8458C2.20406 11.3657 2.49001 9.89316 3.09213 8.54003C3.69425 7.1869 4.59672 5.98873 5.73105 5.03646C6.86537 4.08419 8.20173 3.40285 9.63869 3.04416C11.0756 2.68548 12.5754 2.65886 14.0242 2.96635C15.473 3.27383 16.8327 3.90733 18.0001 4.81875C19.1675 5.73018 20.1119 6.89558 20.7616 8.2265C21.4114 9.55741 21.7494 11.0189 21.75 12.4999ZM18 14.7499C18.0001 14.6106 17.9614 14.474 17.8882 14.3554C17.815 14.2368 17.7102 14.141 17.5856 14.0787L14.5856 12.5787C14.4675 12.5198 14.336 12.4932 14.2043 12.5014C14.0726 12.5096 13.9455 12.5524 13.8356 12.6255L12.4584 13.5443C11.8262 13.1967 11.306 12.6765 10.9584 12.0443L11.8772 10.6671C11.9503 10.5573 11.9931 10.4301 12.0013 10.2984C12.0096 10.1667 11.9829 10.0352 11.9241 9.91709L10.4241 6.91709C10.3619 6.79154 10.2658 6.6859 10.1467 6.61217C10.0275 6.53843 9.89011 6.49954 9.75 6.49991C8.75544 6.49991 7.80161 6.895 7.09835 7.59826C6.39509 8.30152 6 9.25535 6 10.2499C6.00248 12.4372 6.87247 14.5342 8.41911 16.0808C9.96575 17.6274 12.0627 18.4974 14.25 18.4999C14.7425 18.4999 15.2301 18.4029 15.6851 18.2145C16.14 18.026 16.5534 17.7498 16.9017 17.4016C17.2499 17.0533 17.5261 16.6399 17.7145 16.185C17.903 15.73 18 15.2424 18 14.7499Z" fill="#1D9E34"/>
</svg>
