<svg width="32" height="32" viewBox="0 0 32 32" fill="none" xmlns="http://www.w3.org/2000/svg">
<rect width="32" height="32" rx="16" fill="#F68D2B" fill-opacity="0.15"/>
<rect x="0.5" y="0.5" width="31" height="31" rx="15.5" stroke="#F68D2B" stroke-opacity="0.5"/>
<path d="M22.3837 11.6794C22.3368 11.6232 22.2781 11.578 22.2118 11.547C22.1455 11.516 22.0732 11.5 22 11.5H11.9175L11.5375 9.41062C11.5166 9.29542 11.4559 9.19121 11.366 9.11617C11.2761 9.04113 11.1627 9.00002 11.0456 9H9.5C9.36739 9 9.24021 9.05268 9.14645 9.14645C9.05268 9.24021 9 9.36739 9 9.5C9 9.63261 9.05268 9.75979 9.14645 9.85355C9.24021 9.94732 9.36739 10 9.5 10H10.625L12.2225 18.7681C12.2696 19.0282 12.3845 19.2712 12.5556 19.4725C12.3194 19.6931 12.1489 19.9749 12.063 20.2865C11.9772 20.5981 11.9793 20.9274 12.0691 21.2379C12.159 21.5484 12.3331 21.828 12.5721 22.0455C12.8112 22.2631 13.1058 22.4103 13.4233 22.4706C13.7409 22.531 14.069 22.5022 14.3712 22.3875C14.6734 22.2728 14.9379 22.0767 15.1354 21.8208C15.3329 21.5649 15.4557 21.2594 15.4902 20.938C15.5246 20.6166 15.4694 20.2919 15.3306 20H18.1694C18.0575 20.2342 17.9996 20.4905 18 20.75C18 21.0961 18.1026 21.4345 18.2949 21.7222C18.4872 22.01 18.7605 22.2343 19.0803 22.3668C19.4001 22.4992 19.7519 22.5339 20.0914 22.4664C20.4309 22.3989 20.7427 22.2322 20.9874 21.9874C21.2322 21.7427 21.3989 21.4309 21.4664 21.0914C21.5339 20.7519 21.4992 20.4001 21.3668 20.0803C21.2343 19.7605 21.01 19.4872 20.7222 19.2949C20.4345 19.1026 20.0961 19 19.75 19H13.6981C13.581 19 13.4677 18.9589 13.3778 18.8838C13.2879 18.8088 13.2272 18.7046 13.2063 18.5894L13.0081 17.5H20.2581C20.6094 17.4999 20.9495 17.3766 21.2192 17.1515C21.4889 16.9264 21.671 16.6137 21.7338 16.2681L22.4937 12.0894C22.5066 12.0171 22.5034 11.943 22.4844 11.8721C22.4654 11.8013 22.431 11.7355 22.3837 11.6794ZM14.5 20.75C14.5 20.8983 14.456 21.0433 14.3736 21.1667C14.2912 21.29 14.1741 21.3861 14.037 21.4429C13.9 21.4997 13.7492 21.5145 13.6037 21.4856C13.4582 21.4566 13.3246 21.3852 13.2197 21.2803C13.1148 21.1754 13.0433 21.0418 13.0144 20.8963C12.9855 20.7508 13.0003 20.6 13.0571 20.463C13.1139 20.3259 13.21 20.2088 13.3333 20.1264C13.4567 20.044 13.6017 20 13.75 20C13.9489 20 14.1397 20.079 14.2803 20.2197C14.421 20.3603 14.5 20.5511 14.5 20.75ZM20.5 20.75C20.5 20.8983 20.456 21.0433 20.3736 21.1667C20.2912 21.29 20.1741 21.3861 20.037 21.4429C19.9 21.4997 19.7492 21.5145 19.6037 21.4856C19.4582 21.4566 19.3246 21.3852 19.2197 21.2803C19.1148 21.1754 19.0434 21.0418 19.0144 20.8963C18.9855 20.7508 19.0003 20.6 19.0571 20.463C19.1139 20.3259 19.21 20.2088 19.3333 20.1264C19.4567 20.044 19.6017 20 19.75 20C19.9489 20 20.1397 20.079 20.2803 20.2197C20.421 20.3603 20.5 20.5511 20.5 20.75Z" fill="#F68D2B"/>
</svg>
