<svg width="33" height="32" viewBox="0 0 33 32" fill="none" xmlns="http://www.w3.org/2000/svg">
<rect x="0.5" width="32" height="32" rx="16" fill="#C71585"/>
<rect x="1" y="0.5" width="31" height="31" rx="15.5" stroke="#16A085" stroke-opacity="0.1"/>
<path d="M12.0091 17.547C12.0113 17.5893 12.0047 17.6317 11.99 17.6714C11.9752 17.7111 11.9526 17.7474 11.9233 17.7781C11.8941 17.8088 11.8589 17.8333 11.82 17.8499C11.781 17.8666 11.739 17.8752 11.6966 17.8751H8.24976C8.1087 17.8753 7.97171 17.8278 7.86107 17.7403C7.75043 17.6528 7.67266 17.5304 7.64039 17.3931C7.6203 17.2991 7.62122 17.2018 7.6431 17.1082C7.66498 17.0146 7.70727 16.927 7.76695 16.8517C8.31836 16.1204 9.04999 15.5446 9.89039 15.1806C9.52143 14.8442 9.23844 14.4243 9.06514 13.956C8.89183 13.4877 8.83325 12.9848 8.89431 12.4892C8.95536 11.9937 9.13427 11.52 9.41604 11.1078C9.69782 10.6956 10.0743 10.3569 10.5138 10.1201C10.9534 9.88332 11.4434 9.7553 11.9426 9.74679C12.4418 9.73828 12.9358 9.84952 13.3832 10.0712C13.8306 10.2928 14.2184 10.6185 14.514 11.0208C14.8097 11.4232 15.0047 11.8905 15.0826 12.3837C15.0926 12.45 15.0808 12.5178 15.0487 12.5768C15.0167 12.6357 14.9663 12.6826 14.9052 12.7103C14.0384 13.111 13.3042 13.7514 12.7894 14.5558C12.2746 15.3602 12.0006 16.2951 11.9998 17.2501C11.9998 17.3501 11.9998 17.4486 12.0091 17.547ZM26.2279 16.8509C25.6778 16.1205 24.9478 15.545 24.1091 15.1806C24.4781 14.8442 24.7611 14.4243 24.9344 13.956C25.1077 13.4877 25.1663 12.9848 25.1052 12.4892C25.0442 11.9937 24.8653 11.52 24.5835 11.1078C24.3017 10.6956 23.9253 10.3569 23.4857 10.1201C23.0461 9.88332 22.5562 9.7553 22.0569 9.74679C21.5577 9.73828 21.0637 9.84952 20.6163 10.0712C20.1689 10.2928 19.7811 10.6185 19.4855 11.0208C19.1898 11.4232 18.9949 11.8905 18.917 12.3837C18.9069 12.45 18.9188 12.5178 18.9508 12.5768C18.9828 12.6357 19.0332 12.6826 19.0943 12.7103C19.9612 13.111 20.6953 13.7514 21.2101 14.5558C21.725 15.3602 21.9989 16.2951 21.9998 17.2501C21.9998 17.3501 21.9998 17.4486 21.9904 17.547C21.9883 17.5893 21.9948 17.6317 22.0095 17.6714C22.0243 17.7111 22.047 17.7474 22.0762 17.7781C22.1054 17.8088 22.1406 17.8333 22.1796 17.8499C22.2185 17.8666 22.2605 17.8752 22.3029 17.8751H25.7498C25.8908 17.8753 26.0278 17.8278 26.1385 17.7403C26.2491 17.6528 26.3269 17.5304 26.3591 17.3931C26.3794 17.2989 26.3784 17.2014 26.3564 17.1077C26.3344 17.0139 26.2918 16.9262 26.2318 16.8509H26.2279ZM19.2748 20.2243C19.8971 19.7477 20.3544 19.0881 20.5824 18.3382C20.8105 17.5883 20.7978 16.7857 20.5462 16.0434C20.2946 15.301 19.8167 14.6562 19.1797 14.1995C18.5427 13.7428 17.7785 13.4971 16.9947 13.4971C16.2108 13.4971 15.4467 13.7428 14.8097 14.1995C14.1727 14.6562 13.6947 15.301 13.4431 16.0434C13.1915 16.7857 13.1789 17.5883 13.4069 18.3382C13.635 19.0881 14.0923 19.7477 14.7146 20.2243C13.6103 20.7028 12.6883 21.5222 12.0834 22.5626C12.0285 22.6576 11.9996 22.7654 11.9996 22.8752C11.9996 22.9849 12.0285 23.0927 12.0834 23.1877C12.1383 23.2827 12.2172 23.3616 12.3122 23.4164C12.4072 23.4713 12.515 23.5001 12.6248 23.5001H21.3748C21.4845 23.5001 21.5923 23.4713 21.6873 23.4164C21.7823 23.3616 21.8613 23.2827 21.9161 23.1877C21.971 23.0927 21.9999 22.9849 21.9999 22.8752C21.9999 22.7654 21.971 22.6576 21.9162 22.5626C21.31 21.5215 20.3862 20.7021 19.2802 20.2243H19.2748Z" fill="white"/>
</svg>
