<svg width="32" height="32" viewBox="0 0 32 32" fill="none" xmlns="http://www.w3.org/2000/svg">
<rect width="32" height="32" rx="16" fill="white"/>
<rect x="0.333333" y="0.333333" width="31.3333" height="31.3333" rx="15.6667" stroke="#6976EB" stroke-opacity="0.5" stroke-width="0.666667"/>
<path d="M24.6663 22.6667C24.6663 22.8436 24.5961 23.0131 24.4711 23.1382C24.3461 23.2632 24.1765 23.3334 23.9997 23.3334H7.99967C7.82286 23.3334 7.65329 23.2632 7.52827 23.1382C7.40325 23.0131 7.33301 22.8436 7.33301 22.6667C7.33301 22.4899 7.40325 22.3204 7.52827 22.1953C7.65329 22.0703 7.82286 22.0001 7.99967 22.0001H23.9997C24.1765 22.0001 24.3461 22.0703 24.4711 22.1953C24.5961 22.3204 24.6663 22.4899 24.6663 22.6667ZM24.6663 10.0001V19.3334C24.6663 19.687 24.5259 20.0262 24.2758 20.2762C24.0258 20.5263 23.6866 20.6667 23.333 20.6667H8.66634C8.31272 20.6667 7.97358 20.5263 7.72353 20.2762C7.47348 20.0262 7.33301 19.687 7.33301 19.3334V10.0001C7.33301 9.64646 7.47348 9.30732 7.72353 9.05727C7.97358 8.80722 8.31272 8.66675 8.66634 8.66675H23.333C23.6866 8.66675 24.0258 8.80722 24.2758 9.05727C24.5259 9.30732 24.6663 9.64646 24.6663 10.0001ZM18.9997 14.6667C18.9996 14.5596 18.9738 14.4541 18.9243 14.3591C18.8749 14.2641 18.8032 14.1824 18.7155 14.1209L15.3822 11.7876C15.2823 11.7176 15.1651 11.6764 15.0434 11.6684C14.9217 11.6604 14.8002 11.6859 14.692 11.7422C14.5838 11.7985 14.4931 11.8834 14.4298 11.9876C14.3665 12.0918 14.333 12.2115 14.333 12.3334V17.0001C14.333 17.122 14.3665 17.2416 14.4298 17.3459C14.4931 17.4501 14.5838 17.535 14.692 17.5913C14.8002 17.6476 14.9217 17.6731 15.0434 17.6651C15.1651 17.6571 15.2823 17.6159 15.3822 17.5459L18.7155 15.2126C18.8032 15.1511 18.8749 15.0694 18.9243 14.9744C18.9738 14.8794 18.9996 14.7739 18.9997 14.6667Z" fill="#6976EB"/>
</svg>
