<svg width="40" height="40" viewBox="0 0 40 40" fill="none" xmlns="http://www.w3.org/2000/svg">
<rect width="40" height="40" rx="20" fill="white"/>
<rect x="0.5" y="0.5" width="39" height="39" rx="19.5" stroke="#1D9E34" stroke-opacity="0.5"/>
<path d="M28.25 14H13.25C13.0511 14 12.8603 13.921 12.7197 13.7803C12.579 13.6397 12.5 13.4489 12.5 13.25C12.5 13.0511 12.579 12.8603 12.7197 12.7197C12.8603 12.579 13.0511 12.5 13.25 12.5H26C26.1989 12.5 26.3897 12.421 26.5303 12.2803C26.671 12.1397 26.75 11.9489 26.75 11.75C26.75 11.5511 26.671 11.3603 26.5303 11.2197C26.3897 11.079 26.1989 11 26 11H13.25C12.6533 11 12.081 11.2371 11.659 11.659C11.2371 12.081 11 12.6533 11 13.25V25.25C11 25.8467 11.2371 26.419 11.659 26.841C12.081 27.2629 12.6533 27.5 13.25 27.5H28.25C28.6478 27.5 29.0294 27.342 29.3107 27.0607C29.592 26.7794 29.75 26.3978 29.75 26V15.5C29.75 15.1022 29.592 14.7206 29.3107 14.4393C29.0294 14.158 28.6478 14 28.25 14ZM24.875 21.5C24.6525 21.5 24.435 21.434 24.25 21.3104C24.065 21.1868 23.9208 21.0111 23.8356 20.8055C23.7505 20.6 23.7282 20.3738 23.7716 20.1555C23.815 19.9373 23.9222 19.7368 24.0795 19.5795C24.2368 19.4222 24.4373 19.315 24.6555 19.2716C24.8738 19.2282 25.1 19.2505 25.3055 19.3356C25.5111 19.4208 25.6868 19.565 25.8104 19.75C25.934 19.935 26 20.1525 26 20.375C26 20.6734 25.8815 20.9595 25.6705 21.1705C25.4595 21.3815 25.1734 21.5 24.875 21.5Z" fill="#1D9E34"/>
</svg>
