<svg width="22" height="24" viewBox="0 0 22 24" fill="none" xmlns="http://www.w3.org/2000/svg">
<path d="M20.5676 5.81482L11.7676 0.999823C11.5325 0.869905 11.2682 0.801758 10.9996 0.801758C10.731 0.801758 10.4667 0.869905 10.2316 0.999823L1.43161 5.81682C1.1803 5.95433 0.970513 6.15678 0.824161 6.40305C0.67781 6.64931 0.60026 6.93035 0.599609 7.21682V16.7808C0.60026 17.0673 0.67781 17.3483 0.824161 17.5946C0.970513 17.8409 1.1803 18.0433 1.43161 18.1808L10.2316 22.9978C10.4667 23.1277 10.731 23.1959 10.9996 23.1959C11.2682 23.1959 11.5325 23.1277 11.7676 22.9978L20.5676 18.1808C20.8189 18.0433 21.0287 17.8409 21.1751 17.5946C21.3214 17.3483 21.399 17.0673 21.3996 16.7808V7.21782C21.3995 6.93084 21.3222 6.64918 21.1758 6.40234C21.0294 6.1555 20.8194 5.95257 20.5676 5.81482ZM10.9996 11.1998L2.96461 6.79982L10.9996 2.39982L19.0346 6.79982L10.9996 11.1998ZM11.7996 21.1638V12.5828L19.7996 8.20482V16.7808L11.7996 21.1638Z" fill="#F6A704"/>
</svg>
