<svg width="81" height="33" viewBox="0 0 81 33" fill="none" xmlns="http://www.w3.org/2000/svg">
<path d="M80 30.2546L79.0247 31.8178L78.0494 30.9494L76.684 28.1705L75.9037 29.5599L75.1235 28.6915L73.563 29.5599L72.7827 27.8231L70.8321 26.0863L69.0765 26.6073L68.2963 24.0021L66.5407 21.2232L64.9802 24.0021L64.2 23.3074L63.4198 24.6969L62.4444 22.7864L59.5185 20.5285L58.7383 22.7864L57.3728 20.0075L55.6173 18.7917L54.4469 20.0075L53.8617 16.7076L52.8864 18.2707L51.1309 16.7076L49.9605 17.576V14.9708L48.0099 14.1024L46.8395 17.576L45.4741 16.1865V18.2707L43.3284 16.7076L42.158 20.0075L40.5975 21.2232L39.4272 20.0075L38.0617 15.6655L36.8914 18.2707L36.1111 15.6655L33.7704 17.576V15.6655L32.6 14.1024V16.7076L30.6494 20.0075L30.0642 17.576L29.6741 15.4918L29.0889 16.7076L27.7235 14.1024L26.7481 15.4918L25.5778 19.6601L24.2123 18.7917L23.042 16.7076L21.8716 17.576L20.8963 15.4918L19.1407 14.9708V11.1498L17.5802 10.6287V8.54458L15.0444 9.41298L14.4593 5.41833L12.8988 3.68153V6.11305L11.9235 8.54458H10.9481L9.77778 3.33416L8.60741 6.11305L7.82716 4.89729L6.65678 4.54993L5.87654 2.46576L4.51111 3.68153L4.21852 2.89996L2.36543 1.25L1 4.54993" stroke="#DC2626" stroke-linecap="round" stroke-linejoin="round"/>
</svg>
