<svg width="24" height="24" viewBox="0 0 24 24" fill="none" xmlns="http://www.w3.org/2000/svg">
<rect width="24" height="24" rx="4" fill="white"/>
<path d="M12.5 6.5C12.5 6.36739 12.5527 6.24021 12.6464 6.14645C12.7402 6.05268 12.8674 6 13 6H17C17.1326 6 17.2598 6.05268 17.3536 6.14645C17.4473 6.24021 17.5 6.36739 17.5 6.5V17.5C17.5 17.6326 17.4473 17.7598 17.3536 17.8536C17.2598 17.9473 17.1326 18 17 18H13C12.8674 18 12.7402 17.9473 12.6464 17.8536C12.5527 17.7598 12.5 17.6326 12.5 17.5C12.5 17.3674 12.5527 17.2402 12.6464 17.1464C12.7402 17.0527 12.8674 17 13 17H16.5V7H13C12.8674 7 12.7402 6.94732 12.6464 6.85355C12.5527 6.75979 12.5 6.63261 12.5 6.5ZM5.64625 12.3538L8.14625 14.8538C8.21618 14.9238 8.3053 14.9714 8.40235 14.9908C8.49939 15.0101 8.59998 15.0002 8.69139 14.9623C8.78281 14.9244 8.86092 14.8603 8.91586 14.778C8.9708 14.6957 9.00008 14.5989 9 14.5V12.5H13C13.1326 12.5 13.2598 12.4473 13.3536 12.3536C13.4473 12.2598 13.5 12.1326 13.5 12C13.5 11.8674 13.4473 11.7402 13.3536 11.6464C13.2598 11.5527 13.1326 11.5 13 11.5H9L9 9.5C9.00008 9.40105 8.9708 9.30431 8.91586 9.22201C8.86092 9.13971 8.78281 9.07557 8.69139 9.03769C8.59998 8.99981 8.49939 8.98991 8.40235 9.00924C8.3053 9.02856 8.21618 9.07624 8.14625 9.14625L5.64625 11.6462C5.59976 11.6927 5.56288 11.7478 5.53772 11.8085C5.51256 11.8692 5.49961 11.9343 5.49961 12C5.49961 12.0657 5.51256 12.1308 5.53772 12.1915C5.56288 12.2522 5.59976 12.3073 5.64625 12.3538Z" fill="#CBB1FC"/>
</svg>
