<?xml version="1.0" encoding="UTF-8"?>
<svg version="1.1" xmlns="http://www.w3.org/2000/svg" width="48" height="48">
<path d="M0 0 C1.11246094 -0.00257813 2.22492187 -0.00515625 3.37109375 -0.0078125 C4.53769531 -0.00007812 5.70429688 0.00765625 6.90625 0.015625 C8.07285156 0.00789062 9.23945313 0.00015625 10.44140625 -0.0078125 C11.55386719 -0.00523437 12.66632812 -0.00265625 13.8125 0 C14.83666016 0.00225586 15.86082031 0.00451172 16.91601562 0.00683594 C19.40625 0.265625 19.40625 0.265625 21.40625 2.265625 C21.53125 4.890625 21.53125 4.890625 21.40625 7.265625 C20.08625 6.935625 18.76625 6.605625 17.40625 6.265625 C17.40625 5.605625 17.40625 4.945625 17.40625 4.265625 C10.47625 4.265625 3.54625 4.265625 -3.59375 4.265625 C-3.59375 13.505625 -3.59375 22.745625 -3.59375 32.265625 C3.33625 32.265625 10.26625 32.265625 17.40625 32.265625 C17.73625 31.275625 18.06625 30.285625 18.40625 29.265625 C19.39625 29.265625 20.38625 29.265625 21.40625 29.265625 C21.53125 31.640625 21.53125 31.640625 21.40625 34.265625 C18.75925384 36.91262116 17.50230591 36.52312267 13.8125 36.53125 C12.70003906 36.53382812 11.58757813 36.53640625 10.44140625 36.5390625 C9.27480469 36.53132813 8.10820312 36.52359375 6.90625 36.515625 C5.73964844 36.52335937 4.57304687 36.53109375 3.37109375 36.5390625 C2.25863281 36.53648438 1.14617188 36.53390625 0 36.53125 C-1.02416016 36.52899414 -2.04832031 36.52673828 -3.10351562 36.52441406 C-5.59375 36.265625 -5.59375 36.265625 -7.59375 34.265625 C-7.85253906 31.1328125 -7.85253906 31.1328125 -7.859375 27.140625 C-7.86128845 26.4379248 -7.8632019 25.73522461 -7.86517334 25.01123047 C-7.86653475 23.52506146 -7.86284132 22.03888055 -7.85449219 20.55273438 C-7.84379154 18.27446854 -7.85438839 15.99699123 -7.8671875 13.71875 C-7.8658659 12.27603992 -7.86330349 10.83333034 -7.859375 9.390625 C-7.85711914 8.07320312 -7.85486328 6.75578125 -7.85253906 5.3984375 C-7.39519803 -0.13797773 -4.90036386 0.01079375 0 0 Z " fill="#000000" transform="translate(13.59375,5.734375)"/>
<path d="M0 0 C4.62983765 0.84729055 7.29394589 3.22069732 10 7 C10.30572272 10.05722717 9.57315346 11.28610175 7.6796875 13.64453125 C6.17859919 15.25499535 4.78457381 16.70818164 3 18 C2.01 18 1.02 18 0 18 C0.875 13.125 0.875 13.125 2 12 C-4.6 11.67 -11.2 11.34 -18 11 C-18 9.68 -18 8.36 -18 7 C-8.1 6.505 -8.1 6.505 2 6 C1.34 5.34 0.68 4.68 0 4 C0 2.68 0 1.36 0 0 Z " fill="#000000" transform="translate(32,15)"/>
</svg>
