<svg width="32" height="32" viewBox="0 0 32 32" fill="none" xmlns="http://www.w3.org/2000/svg">
<rect x="0.2" y="0.2" width="31.6" height="31.6" rx="15.8" fill="white"/>
<rect x="0.2" y="0.2" width="31.6" height="31.6" rx="15.8" stroke="#CBB1FC" stroke-width="0.4"/>
<path d="M24.0306 11.7194L18.7806 6.46938C18.7109 6.39975 18.6282 6.34454 18.5371 6.3069C18.4461 6.26926 18.3485 6.24992 18.25 6.25H9.25C8.85218 6.25 8.47064 6.40804 8.18934 6.68934C7.90804 6.97064 7.75 7.35218 7.75 7.75V24.25C7.75 24.6478 7.90804 25.0294 8.18934 25.3107C8.47064 25.592 8.85218 25.75 9.25 25.75H22.75C23.1478 25.75 23.5294 25.592 23.8107 25.3107C24.092 25.0294 24.25 24.6478 24.25 24.25V12.25C24.2501 12.1515 24.2307 12.0539 24.1931 11.9629C24.1555 11.8718 24.1003 11.7891 24.0306 11.7194ZM18.25 12.25V8.125L22.375 12.25H18.25Z" fill="#5604F6"/>
</svg>
