<svg width="40" height="40" viewBox="0 0 40 40" fill="none" xmlns="http://www.w3.org/2000/svg">
<rect width="40" height="40" rx="20" fill="white"/>
<rect x="0.5" y="0.5" width="39" height="39" rx="19.5" stroke="#C71585" stroke-opacity="0.5"/>
<path d="M29.4256 16.1245L12.92 11.062C12.6966 10.9968 12.4611 10.9845 12.2321 11.0261C12.0032 11.0676 11.787 11.1619 11.6007 11.3014C11.4145 11.4409 11.2633 11.6218 11.159 11.8299C11.0547 12.0379 11.0003 12.2674 11 12.5001V26.0001C11 26.3979 11.158 26.7794 11.4393 27.0607C11.7206 27.342 12.1022 27.5001 12.5 27.5001C12.6434 27.5001 12.7861 27.4796 12.9238 27.4391L20.75 25.0373V26.0001C20.75 26.3979 20.908 26.7794 21.1893 27.0607C21.4706 27.342 21.8522 27.5001 22.25 27.5001H25.25C25.6478 27.5001 26.0294 27.342 26.3107 27.0607C26.592 26.7794 26.75 26.3979 26.75 26.0001V23.197L29.4256 22.3766C29.7353 22.2836 30.0069 22.0935 30.2003 21.8344C30.3937 21.5753 30.4988 21.2609 30.5 20.9376V17.5626C30.4986 17.2394 30.3934 16.9252 30.2 16.6663C30.0066 16.4074 29.7351 16.2174 29.4256 16.1245ZM25.25 26.0001H22.25V24.577L25.25 23.6563V26.0001ZM29 20.9376H28.9897L22.25 23.0076V15.4916L28.9897 17.5626H29V20.9376Z" fill="#C71585"/>
</svg>
