<svg width="33" height="32" viewBox="0 0 33 32" fill="none" xmlns="http://www.w3.org/2000/svg">
<rect x="0.5" width="32" height="32" rx="16" fill="#F39C12"/>
<rect x="1" y="0.5" width="31" height="31" rx="15.5" stroke="#F39C12" stroke-opacity="0.2"/>
<path d="M25.7273 11.7922L23.7242 19.0016C23.6141 19.3954 23.3785 19.7425 23.0533 19.9904C22.728 20.2383 22.3308 20.3733 21.9219 20.375H14.2C13.7899 20.3748 13.3911 20.2405 13.0644 19.9925C12.7377 19.7446 12.5011 19.3965 12.3906 19.0016L9.65 9.125H8.25C8.08424 9.125 7.92527 9.05915 7.80806 8.94194C7.69085 8.82473 7.625 8.66576 7.625 8.5C7.625 8.33424 7.69085 8.17527 7.80806 8.05806C7.92527 7.94085 8.08424 7.875 8.25 7.875H10.125C10.2616 7.87497 10.3945 7.91973 10.5033 8.00241C10.6121 8.08509 10.6908 8.20115 10.7273 8.33281L11.468 11H25.125C25.2214 11 25.3164 11.0222 25.4027 11.065C25.4891 11.1078 25.5643 11.17 25.6226 11.2467C25.681 11.3234 25.7208 11.4126 25.7389 11.5072C25.7571 11.6018 25.7531 11.6993 25.7273 11.7922ZM13.875 21.625C13.6278 21.625 13.3861 21.6983 13.1805 21.8357C12.975 21.973 12.8148 22.1682 12.7202 22.3966C12.6255 22.6251 12.6008 22.8764 12.649 23.1189C12.6972 23.3613 12.8163 23.5841 12.9911 23.7589C13.1659 23.9337 13.3887 24.0527 13.6311 24.101C13.8736 24.1492 14.1249 24.1245 14.3534 24.0299C14.5818 23.9352 14.777 23.775 14.9143 23.5695C15.0517 23.3639 15.125 23.1222 15.125 22.875C15.125 22.5435 14.9933 22.2255 14.7589 21.9911C14.5245 21.7567 14.2065 21.625 13.875 21.625ZM22 21.625C21.7528 21.625 21.5111 21.6983 21.3055 21.8357C21.1 21.973 20.9398 22.1682 20.8451 22.3966C20.7505 22.6251 20.7258 22.8764 20.774 23.1189C20.8222 23.3613 20.9413 23.5841 21.1161 23.7589C21.2909 23.9337 21.5137 24.0527 21.7561 24.101C21.9986 24.1492 22.2499 24.1245 22.4784 24.0299C22.7068 23.9352 22.902 23.775 23.0393 23.5695C23.1767 23.3639 23.25 23.1222 23.25 22.875C23.25 22.5435 23.1183 22.2255 22.8839 21.9911C22.6495 21.7567 22.3315 21.625 22 21.625Z" fill="white"/>
</svg>
