<svg width="32" height="32" viewBox="0 0 32 32" fill="none" xmlns="http://www.w3.org/2000/svg">
<rect width="32" height="32" rx="16" fill="white"/>
<rect x="0.2" y="0.2" width="31.6" height="31.6" rx="15.8" stroke="#0496FF" stroke-opacity="0.5" stroke-width="0.4"/>
<path d="M18.0253 8.30599C18.0508 8.21081 18.0947 8.12158 18.1547 8.04339C18.2147 7.9652 18.2894 7.8996 18.3748 7.85032C18.4601 7.80104 18.5543 7.76906 18.652 7.7562C18.7496 7.74334 18.8489 7.74985 18.9441 7.77537C20.3344 8.13813 21.603 8.86497 22.619 9.88103C23.6351 10.8971 24.3619 12.1656 24.7247 13.556C24.7502 13.6512 24.7567 13.7504 24.7439 13.8481C24.731 13.9458 24.699 14.04 24.6497 14.1253C24.6005 14.2106 24.5349 14.2854 24.4567 14.3454C24.3785 14.4053 24.2893 14.4493 24.1941 14.4747C24.1307 14.4914 24.0655 14.4999 24 14.5001C23.8349 14.5001 23.6743 14.4456 23.5433 14.3451C23.4122 14.2446 23.3181 14.1036 23.2753 13.9441C22.9796 12.8089 22.3865 11.7732 21.5571 10.9436C20.7277 10.114 19.692 9.52069 18.5569 9.22474C18.4616 9.19938 18.3723 9.15549 18.294 9.09558C18.2157 9.03566 18.15 8.9609 18.1006 8.87557C18.0513 8.79024 18.0192 8.69601 18.0063 8.59828C17.9933 8.50054 17.9998 8.40122 18.0253 8.30599ZM17.8069 12.2247C19.0997 12.5697 19.9303 13.4013 20.2753 14.6941C20.3181 14.8536 20.4122 14.9946 20.5433 15.0951C20.6743 15.1956 20.8349 15.2501 21 15.2501C21.0655 15.2499 21.1307 15.2414 21.1941 15.2247C21.2893 15.1993 21.3785 15.1553 21.4567 15.0954C21.5349 15.0354 21.6005 14.9606 21.6497 14.8753C21.699 14.79 21.731 14.6958 21.7439 14.5981C21.7567 14.5004 21.7502 14.4012 21.7247 14.306C21.2447 12.5097 19.9903 11.2554 18.1941 10.7754C18.0019 10.724 17.7971 10.7511 17.6249 10.8507C17.4527 10.9503 17.3271 11.1143 17.2758 11.3065C17.2244 11.4987 17.2516 11.7034 17.3512 11.8756C17.4508 12.0478 17.6147 12.1734 17.8069 12.2247ZM24.5972 19.6057L20.1806 17.6266L20.1684 17.621C19.9392 17.5229 19.689 17.4836 19.4407 17.5065C19.1924 17.5294 18.9537 17.6139 18.7463 17.7522C18.7218 17.7684 18.6984 17.7859 18.6759 17.8047L16.3941 19.7501C14.9484 19.0479 13.4559 17.5666 12.7538 16.1397L14.7019 13.8232C14.7206 13.7997 14.7384 13.7763 14.7553 13.751C14.8907 13.5441 14.9729 13.3069 14.9945 13.0606C15.0161 12.8143 14.9764 12.5664 14.8791 12.3391V12.3279L12.8944 7.9038C12.7657 7.60687 12.5444 7.35951 12.2636 7.19865C11.9828 7.0378 11.6575 6.97208 11.3363 7.0113C10.0659 7.17847 8.89986 7.80234 8.05588 8.76639C7.2119 9.73045 6.74771 10.9688 6.75001 12.2501C6.75001 19.6938 12.8063 25.7501 20.25 25.7501C21.5313 25.7523 22.7696 25.2882 23.7337 24.4442C24.6977 23.6002 25.3216 22.4341 25.4888 21.1638C25.5281 20.8427 25.4625 20.5174 25.3018 20.2366C25.1411 19.9558 24.894 19.7345 24.5972 19.6057Z" fill="#0496FF"/>
</svg>
