<svg width="32" height="32" viewBox="0 0 32 32" fill="none" xmlns="http://www.w3.org/2000/svg">
<rect width="32" height="32" rx="16" fill="#16A085"/>
<rect x="0.5" y="0.5" width="31" height="31" rx="15.5" stroke="#16A085" stroke-opacity="0.1"/>
<path d="M15.375 10.375V14.125C15.375 14.4565 15.2433 14.7745 15.0089 15.0089C14.7745 15.2433 14.4565 15.375 14.125 15.375H10.375C10.0435 15.375 9.72554 15.2433 9.49112 15.0089C9.2567 14.7745 9.125 14.4565 9.125 14.125V10.375C9.125 10.0435 9.2567 9.72554 9.49112 9.49112C9.72554 9.2567 10.0435 9.125 10.375 9.125H14.125C14.4565 9.125 14.7745 9.2567 15.0089 9.49112C15.2433 9.72554 15.375 10.0435 15.375 10.375ZM21.625 9.125H17.875C17.5435 9.125 17.2255 9.2567 16.9911 9.49112C16.7567 9.72554 16.625 10.0435 16.625 10.375V14.125C16.625 14.4565 16.7567 14.7745 16.9911 15.0089C17.2255 15.2433 17.5435 15.375 17.875 15.375H21.625C21.9565 15.375 22.2745 15.2433 22.5089 15.0089C22.7433 14.7745 22.875 14.4565 22.875 14.125V10.375C22.875 10.0435 22.7433 9.72554 22.5089 9.49112C22.2745 9.2567 21.9565 9.125 21.625 9.125ZM14.125 16.625H10.375C10.0435 16.625 9.72554 16.7567 9.49112 16.9911C9.2567 17.2255 9.125 17.5435 9.125 17.875V21.625C9.125 21.9565 9.2567 22.2745 9.49112 22.5089C9.72554 22.7433 10.0435 22.875 10.375 22.875H14.125C14.4565 22.875 14.7745 22.7433 15.0089 22.5089C15.2433 22.2745 15.375 21.9565 15.375 21.625V17.875C15.375 17.5435 15.2433 17.2255 15.0089 16.9911C14.7745 16.7567 14.4565 16.625 14.125 16.625ZM21.625 16.625H17.875C17.5435 16.625 17.2255 16.7567 16.9911 16.9911C16.7567 17.2255 16.625 17.5435 16.625 17.875V21.625C16.625 21.9565 16.7567 22.2745 16.9911 22.5089C17.2255 22.7433 17.5435 22.875 17.875 22.875H21.625C21.9565 22.875 22.2745 22.7433 22.5089 22.5089C22.7433 22.2745 22.875 21.9565 22.875 21.625V17.875C22.875 17.5435 22.7433 17.2255 22.5089 16.9911C22.2745 16.7567 21.9565 16.625 21.625 16.625Z" fill="white"/>
</svg>
