<svg width="32" height="32" viewBox="0 0 32 32" fill="none" xmlns="http://www.w3.org/2000/svg">
<rect x="0.2" y="0.2" width="31.6" height="31.6" rx="15.8" fill="white"/>
<rect x="0.2" y="0.2" width="31.6" height="31.6" rx="15.8" stroke="#EAE6EB" stroke-width="0.4"/>
<path d="M25.5676 9.81482L16.7676 4.99982C16.5325 4.8699 16.2682 4.80176 15.9996 4.80176C15.731 4.80176 15.4667 4.8699 15.2316 4.99982L6.43161 9.81682C6.1803 9.95433 5.97051 10.1568 5.82416 10.403C5.67781 10.6493 5.60026 10.9304 5.59961 11.2168V20.7808C5.60026 21.0673 5.67781 21.3483 5.82416 21.5946C5.97051 21.8409 6.1803 22.0433 6.43161 22.1808L15.2316 26.9978C15.4667 27.1277 15.731 27.1959 15.9996 27.1959C16.2682 27.1959 16.5325 27.1277 16.7676 26.9978L25.5676 22.1808C25.8189 22.0433 26.0287 21.8409 26.1751 21.5946C26.3214 21.3483 26.399 21.0673 26.3996 20.7808V11.2178C26.3995 10.9308 26.3222 10.6492 26.1758 10.4023C26.0294 10.1555 25.8194 9.95257 25.5676 9.81482ZM15.9996 15.1998L7.96461 10.7998L15.9996 6.39982L24.0346 10.7998L15.9996 15.1998ZM16.7996 25.1638V16.5828L24.7996 12.2048V20.7808L16.7996 25.1638Z" fill="#2E0234"/>
</svg>
