<svg width="18" height="18" viewBox="0 0 18 18" fill="none" xmlns="http://www.w3.org/2000/svg">
<path d="M16.475 4.16768L9.6 0.405959C9.41631 0.304461 9.20987 0.251221 9 0.251221C8.79013 0.251221 8.58369 0.304461 8.4 0.405959L1.525 4.16924C1.32866 4.27667 1.16477 4.43483 1.05043 4.62723C0.936094 4.81962 0.875508 5.03919 0.875 5.26299V12.7349C0.875508 12.9587 0.936094 13.1782 1.05043 13.3706C1.16477 13.563 1.32866 13.7212 1.525 13.8286L8.4 17.5919C8.58369 17.6934 8.79013 17.7466 9 17.7466C9.20987 17.7466 9.41631 17.6934 9.6 17.5919L16.475 13.8286C16.6713 13.7212 16.8352 13.563 16.9496 13.3706C17.0639 13.1782 17.1245 12.9587 17.125 12.7349V5.26377C17.1249 5.03957 17.0645 4.81952 16.9502 4.62667C16.8358 4.43383 16.6717 4.27529 16.475 4.16768ZM9 1.49971L15.2766 4.93721L12.9508 6.21065L6.67344 2.77315L9 1.49971ZM9 8.37471L2.72344 4.93721L5.37187 3.48721L11.6484 6.92471L9 8.37471ZM2.125 6.03096L8.375 9.45127V16.1536L2.125 12.7356V6.03096ZM15.875 12.7325L9.625 16.1536V9.4544L12.125 8.08643V10.8747C12.125 11.0405 12.1908 11.1994 12.3081 11.3167C12.4253 11.4339 12.5842 11.4997 12.75 11.4997C12.9158 11.4997 13.0747 11.4339 13.1919 11.3167C13.3092 11.1994 13.375 11.0405 13.375 10.8747V7.40205L15.875 6.03096V12.7317V12.7325Z" fill="black"/>
</svg>
