<svg width="18" height="17" viewBox="0 0 18 17" fill="none" xmlns="http://www.w3.org/2000/svg">
<path d="M17.375 8.37527C17.374 7.38103 16.9785 6.4278 16.2755 5.72476C15.5725 5.02172 14.6192 4.6263 13.625 4.62527H10.5156C10.2883 4.61199 6.32656 4.33308 2.55391 1.16902C2.37172 1.01601 2.14966 0.918177 1.9138 0.887001C1.67794 0.855824 1.43809 0.892604 1.22241 0.993019C1.00673 1.09343 0.824183 1.25332 0.696218 1.45388C0.568252 1.65444 0.500181 1.88736 0.5 2.12527V14.6253C0.500032 14.8632 0.567996 15.0963 0.695903 15.2969C0.82381 15.4976 1.00635 15.6576 1.22205 15.7581C1.43776 15.8586 1.67768 15.8955 1.91361 15.8643C2.14954 15.8332 2.37167 15.7354 2.55391 15.5823C5.50469 13.1073 8.56953 12.3979 9.875 12.1995V14.6776C9.87474 14.8836 9.92538 15.0864 10.0224 15.2681C10.1195 15.4498 10.2599 15.6047 10.4312 15.719L11.2906 16.2917C11.4567 16.4025 11.647 16.472 11.8454 16.4942C12.0439 16.5164 12.2448 16.4908 12.4313 16.4194C12.6178 16.348 12.7845 16.233 12.9175 16.084C13.0504 15.9349 13.1457 15.7562 13.1953 15.5628L14.1148 12.0971C15.017 11.9771 15.8448 11.5336 16.4445 10.849C17.0441 10.1644 17.3748 9.28535 17.375 8.37527ZM1.75 14.6198V2.12527C5.09453 4.93074 8.51797 5.6409 9.875 5.8159V10.9315C8.51953 11.1096 5.09688 11.8182 1.75 14.6198ZM11.9844 15.2448V15.2534L11.125 14.6807V12.1253H12.8125L11.9844 15.2448ZM13.625 10.8753H11.125V5.87527H13.625C14.288 5.87527 14.9239 6.13866 15.3928 6.6075C15.8616 7.07634 16.125 7.71223 16.125 8.37527C16.125 9.03831 15.8616 9.6742 15.3928 10.143C14.9239 10.6119 14.288 10.8753 13.625 10.8753Z" fill="#121212"/>
</svg>
