<svg width="32" height="32" viewBox="0 0 32 32" fill="none" xmlns="http://www.w3.org/2000/svg">
<rect width="32" height="32" rx="16" fill="#27AE60"/>
<rect x="0.5" y="0.5" width="31" height="31" rx="15.5" stroke="#16A085" stroke-opacity="0.1"/>
<path d="M17.2148 16.625H18.5V18.4219L17.2148 16.625ZM13.5 15.375H14.7852L13.5 13.5781V15.375ZM24.125 16C24.125 17.607 23.6485 19.1779 22.7557 20.514C21.8629 21.8502 20.594 22.8916 19.1093 23.5065C17.6247 24.1215 15.991 24.2824 14.4149 23.9689C12.8388 23.6554 11.3911 22.8815 10.2548 21.7452C9.11846 20.6089 8.34463 19.1612 8.03112 17.5851C7.71762 16.009 7.87852 14.3753 8.49348 12.8907C9.10844 11.406 10.1498 10.1371 11.486 9.24431C12.8221 8.35152 14.393 7.875 16 7.875C18.1542 7.87727 20.2195 8.73403 21.7427 10.2573C23.266 11.7805 24.1227 13.8458 24.125 16ZM21.625 16C21.625 15.8342 21.5592 15.6753 21.4419 15.5581C21.3247 15.4408 21.1658 15.375 21 15.375H19.75V11.625C19.75 11.4592 19.6842 11.3003 19.5669 11.1831C19.4497 11.0658 19.2908 11 19.125 11C18.9592 11 18.8003 11.0658 18.6831 11.1831C18.5659 11.3003 18.5 11.4592 18.5 11.625V15.375H16.3219L13.3836 11.2617C13.3066 11.154 13.1974 11.0734 13.0717 11.0318C12.9461 10.9901 12.8104 10.9894 12.6843 11.0298C12.5582 11.0702 12.4482 11.1496 12.3701 11.2566C12.2921 11.3636 12.25 11.4926 12.25 11.625V15.375H11C10.8342 15.375 10.6753 15.4408 10.5581 15.5581C10.4409 15.6753 10.375 15.8342 10.375 16C10.375 16.1658 10.4409 16.3247 10.5581 16.4419C10.6753 16.5592 10.8342 16.625 11 16.625H12.25V20.375C12.25 20.5408 12.3159 20.6997 12.4331 20.8169C12.5503 20.9342 12.7092 21 12.875 21C13.0408 21 13.1997 20.9342 13.3169 20.8169C13.4342 20.6997 13.5 20.5408 13.5 20.375V16.625H15.6781L18.6164 20.7383C18.6742 20.8192 18.7506 20.8852 18.839 20.9307C18.9275 20.9763 19.0255 21 19.125 21C19.1897 21.0001 19.254 20.9901 19.3156 20.9703C19.4418 20.9299 19.5518 20.8505 19.6299 20.7435C19.708 20.6365 19.75 20.5075 19.75 20.375V16.625H21C21.1658 16.625 21.3247 16.5592 21.4419 16.4419C21.5592 16.3247 21.625 16.1658 21.625 16Z" fill="white"/>
</svg>
