<svg width="18" height="18" viewBox="0 0 18 18" fill="none" xmlns="http://www.w3.org/2000/svg">
<path d="M9.00028 5.25004C8.2586 5.25004 7.53358 5.46997 6.91689 5.88203C6.30021 6.29408 5.81956 6.87975 5.53573 7.56497C5.2519 8.2502 5.17764 9.0042 5.32234 9.73163C5.46703 10.4591 5.82418 11.1272 6.34863 11.6517C6.87308 12.1761 7.54126 12.5333 8.26869 12.678C8.99612 12.8227 9.75012 12.7484 10.4353 12.4646C11.1206 12.1808 11.7062 11.7001 12.1183 11.0834C12.5303 10.4667 12.7503 9.74172 12.7503 9.00004C12.7492 8.00579 12.3538 7.05257 11.6508 6.34953C10.9478 5.64649 9.99452 5.25107 9.00028 5.25004ZM9.00028 11.5C8.50583 11.5 8.02248 11.3534 7.61136 11.0787C7.20023 10.804 6.8798 10.4136 6.69058 9.95675C6.50136 9.49993 6.45185 8.99726 6.54832 8.51231C6.64478 8.02736 6.88288 7.5819 7.23251 7.23227C7.58214 6.88264 8.0276 6.64454 8.51256 6.54807C8.99751 6.45161 9.50017 6.50112 9.95699 6.69034C10.4138 6.87956 10.8043 7.19999 11.079 7.61111C11.3537 8.02223 11.5003 8.50558 11.5003 9.00004C11.5003 9.66308 11.2369 10.299 10.768 10.7678C10.2992 11.2366 9.66332 11.5 9.00028 11.5ZM15.8753 9.16879C15.8784 9.05629 15.8784 8.94379 15.8753 8.83129L17.0409 7.37504C17.102 7.29858 17.1443 7.20883 17.1644 7.11303C17.1845 7.01722 17.1818 6.91804 17.1565 6.82347C16.9654 6.10519 16.6796 5.41554 16.3065 4.77269C16.2577 4.68857 16.1899 4.617 16.1085 4.5637C16.0271 4.5104 15.9344 4.47683 15.8378 4.46566L13.9847 4.25941C13.9076 4.17816 13.8294 4.10004 13.7503 4.02504L13.5315 2.16722C13.5203 2.07051 13.4866 1.97777 13.4331 1.89639C13.3797 1.815 13.308 1.74723 13.2237 1.69847C12.5806 1.32609 11.891 1.04053 11.1729 0.849254C11.0783 0.824096 10.9791 0.821523 10.8833 0.841742C10.7875 0.861962 10.6978 0.904408 10.6214 0.965661L9.16903 2.12504C9.05653 2.12504 8.94403 2.12504 8.83153 2.12504L7.37528 0.961754C7.29882 0.900636 7.20907 0.858331 7.11327 0.838248C7.01747 0.818164 6.91829 0.820864 6.82372 0.846129C6.10555 1.03756 5.41595 1.32338 4.77294 1.69613C4.68881 1.74498 4.61725 1.81279 4.56394 1.89417C4.51064 1.97555 4.47707 2.06824 4.46591 2.16488L4.25966 4.02113C4.17841 4.09873 4.10028 4.17686 4.02528 4.2555L2.16747 4.46879C2.07076 4.48004 1.97802 4.51373 1.89663 4.56717C1.81525 4.62061 1.74748 4.69233 1.69872 4.7766C1.32633 5.4197 1.04078 6.10929 0.849499 6.82738C0.82434 6.92201 0.821767 7.02122 0.841986 7.11703C0.862206 7.21284 0.904653 7.30255 0.965905 7.37894L2.12528 8.83129C2.12528 8.94379 2.12528 9.05629 2.12528 9.16879L0.961999 10.625C0.90088 10.7015 0.858575 10.7912 0.838492 10.887C0.818408 10.9828 0.821108 11.082 0.846373 11.1766C1.03746 11.8949 1.3233 12.5845 1.69637 13.2274C1.74522 13.3115 1.81303 13.3831 1.89441 13.4364C1.97579 13.4897 2.06849 13.5232 2.16512 13.5344L4.01825 13.7407C4.09585 13.8219 4.17398 13.9 4.25262 13.975L4.46903 15.8329C4.48028 15.9296 4.51397 16.0223 4.56741 16.1037C4.62085 16.1851 4.69257 16.2528 4.77684 16.3016C5.41994 16.674 6.10953 16.9595 6.82762 17.1508C6.92225 17.176 7.02147 17.1786 7.11727 17.1583C7.21308 17.1381 7.30279 17.0957 7.37919 17.0344L8.83153 15.875C8.94403 15.8782 9.05653 15.8782 9.16903 15.875L10.6253 17.0407C10.7017 17.1018 10.7915 17.1441 10.8873 17.1642C10.9831 17.1843 11.0823 17.1816 11.1768 17.1563C11.8951 16.9652 12.5848 16.6794 13.2276 16.3063C13.3118 16.2574 13.3833 16.1896 13.4366 16.1082C13.4899 16.0269 13.5235 15.9342 13.5347 15.8375L13.7409 13.9844C13.8222 13.9073 13.9003 13.8292 13.9753 13.75L15.8331 13.5313C15.9298 13.52 16.0225 13.4863 16.1039 13.4329C16.1853 13.3795 16.2531 13.3077 16.3018 13.2235C16.6742 12.5804 16.9598 11.8908 17.1511 11.1727C17.1762 11.0781 17.1788 10.9788 17.1586 10.883C17.1384 10.7872 17.0959 10.6975 17.0347 10.6211L15.8753 9.16879ZM14.6175 8.66097C14.6307 8.88682 14.6307 9.11325 14.6175 9.3391C14.6082 9.49372 14.6566 9.64629 14.7534 9.76722L15.862 11.1524C15.7348 11.5567 15.5719 11.9488 15.3753 12.3243L13.6097 12.5243C13.4559 12.5413 13.3139 12.6148 13.2112 12.7305C13.0608 12.8996 12.9007 13.0598 12.7315 13.2102C12.6158 13.3129 12.5423 13.4549 12.5253 13.6086L12.3292 15.3727C11.9538 15.5694 11.5616 15.7323 11.1573 15.8594L9.77137 14.7508C9.66047 14.6622 9.52271 14.614 9.38075 14.6141H9.34325C9.1174 14.6274 8.89097 14.6274 8.66512 14.6141C8.5105 14.6048 8.35793 14.6532 8.237 14.75L6.84794 15.8594C6.44367 15.7322 6.0515 15.5693 5.67606 15.3727L5.47606 13.6094C5.45899 13.4557 5.3855 13.3137 5.26981 13.211C5.10068 13.0606 4.94051 12.9004 4.79012 12.7313C4.68742 12.6156 4.54545 12.5421 4.39169 12.525L2.62762 12.3282C2.4309 11.9528 2.26801 11.5606 2.1409 11.1563L3.2495 9.77035C3.3463 9.64942 3.39474 9.49685 3.38544 9.34222C3.37216 9.11638 3.37216 8.88995 3.38544 8.6641C3.39474 8.50948 3.3463 8.35691 3.2495 8.23597L2.1409 6.84769C2.26811 6.44342 2.43099 6.05125 2.62762 5.67582L4.39091 5.47582C4.54467 5.45875 4.68663 5.38526 4.78934 5.26957C4.93973 5.10043 5.0999 4.94026 5.26903 4.78988C5.38518 4.6871 5.45897 4.54481 5.47606 4.39066L5.67216 2.62738C6.04755 2.43065 6.43972 2.26777 6.84403 2.14066L8.22997 3.24925C8.3509 3.34606 8.50347 3.3945 8.65809 3.38519C8.88394 3.37191 9.11037 3.37191 9.33622 3.38519C9.49084 3.3945 9.64341 3.34606 9.76434 3.24925L11.1526 2.14066C11.5569 2.26787 11.9491 2.43075 12.3245 2.62738L12.5245 4.39066C12.5416 4.54442 12.6151 4.68639 12.7308 4.7891C12.8999 4.93948 13.0601 5.09965 13.2104 5.26879C13.3131 5.38448 13.4551 5.45797 13.6089 5.47504L15.3729 5.67113C15.5697 6.04652 15.7325 6.4387 15.8597 6.84301L14.7511 8.22894C14.6533 8.35089 14.6048 8.50503 14.6151 8.66097H14.6175Z" fill="#121212"/>
</svg>
