<svg width="18" height="14" viewBox="0 0 18 14" fill="none" xmlns="http://www.w3.org/2000/svg">
<path d="M15.25 0.75H2.75C2.25272 0.75 1.77581 0.947544 1.42417 1.29917C1.07254 1.65081 0.875 2.12772 0.875 2.625V11.375C0.875 11.8723 1.07254 12.3492 1.42417 12.7008C1.77581 13.0525 2.25272 13.25 2.75 13.25H15.25C15.7473 13.25 16.2242 13.0525 16.5758 12.7008C16.9275 12.3492 17.125 11.8723 17.125 11.375V2.625C17.125 2.12772 16.9275 1.65081 16.5758 1.29917C16.2242 0.947544 15.7473 0.75 15.25 0.75ZM2.125 4.5H15.875V5.75H11.5C11.3342 5.75 11.1753 5.81585 11.0581 5.93306C10.9408 6.05027 10.875 6.20924 10.875 6.375C10.875 6.87228 10.6775 7.34919 10.3258 7.70083C9.97419 8.05246 9.49728 8.25 9 8.25C8.50272 8.25 8.02581 8.05246 7.67417 7.70083C7.32254 7.34919 7.125 6.87228 7.125 6.375C7.125 6.20924 7.05915 6.05027 6.94194 5.93306C6.82473 5.81585 6.66576 5.75 6.5 5.75H2.125V4.5ZM2.75 2H15.25C15.4158 2 15.5747 2.06585 15.6919 2.18306C15.8092 2.30027 15.875 2.45924 15.875 2.625V3.25H2.125V2.625C2.125 2.45924 2.19085 2.30027 2.30806 2.18306C2.42527 2.06585 2.58424 2 2.75 2ZM15.25 12H2.75C2.58424 12 2.42527 11.9342 2.30806 11.8169C2.19085 11.6997 2.125 11.5408 2.125 11.375V7H5.9375C6.08095 7.70643 6.46421 8.34155 7.02234 8.79774C7.58047 9.25393 8.27915 9.50313 9 9.50313C9.72085 9.50313 10.4195 9.25393 10.9777 8.79774C11.5358 8.34155 11.9191 7.70643 12.0625 7H15.875V11.375C15.875 11.5408 15.8092 11.6997 15.6919 11.8169C15.5747 11.9342 15.4158 12 15.25 12Z" fill="black"/>
</svg>
