<svg width="12" height="11" viewBox="0 0 12 11" fill="none" xmlns="http://www.w3.org/2000/svg">
<path d="M0.645667 2.85366C0.599179 2.80722 0.562299 2.75208 0.537137 2.69138C0.511975 2.63068 0.499023 2.56561 0.499023 2.49991C0.499023 2.4342 0.511975 2.36913 0.537137 2.30844C0.562299 2.24774 0.599179 2.19259 0.645667 2.14616L2.64567 0.146155C2.71559 0.0761498 2.80472 0.0284661 2.90176 0.00914085C2.99881 -0.0101843 3.0994 -0.000282034 3.19081 0.0375942C3.28222 0.0754704 3.36034 0.139617 3.41528 0.221914C3.47021 0.304211 3.49949 0.400958 3.49942 0.499906V1.99991H10.9994C11.132 1.99991 11.2592 2.05258 11.353 2.14635C11.4467 2.24012 11.4994 2.3673 11.4994 2.49991C11.4994 2.63251 11.4467 2.75969 11.353 2.85346C11.2592 2.94723 11.132 2.99991 10.9994 2.99991H3.49942V4.49991C3.49949 4.59885 3.47021 4.6956 3.41528 4.7779C3.36034 4.86019 3.28222 4.92434 3.19081 4.96222C3.0994 5.00009 2.99881 5.01 2.90176 4.99067C2.80472 4.97135 2.71559 4.92366 2.64567 4.85366L0.645667 2.85366ZM11.3532 8.14616L9.35317 6.14616C9.28324 6.07615 9.19411 6.02847 9.09707 6.00914C9.00003 5.98982 8.89943 5.99972 8.80802 6.0376C8.71661 6.07547 8.63849 6.13962 8.58356 6.22192C8.52862 6.30421 8.49934 6.40096 8.49942 6.49991V7.99991H0.999417C0.866809 7.99991 0.739632 8.05258 0.645864 8.14635C0.552095 8.24012 0.499417 8.3673 0.499417 8.49991C0.499417 8.63251 0.552095 8.75969 0.645864 8.85346C0.739632 8.94723 0.866809 8.99991 0.999417 8.99991H8.49942V10.4999C8.49934 10.5989 8.52862 10.6956 8.58356 10.7779C8.63849 10.8602 8.71661 10.9243 8.80802 10.9622C8.89943 11.0001 9.00003 11.01 9.09707 10.9907C9.19411 10.9713 9.28324 10.9237 9.35317 10.8537L11.3532 8.85366C11.3997 8.80722 11.4365 8.75208 11.4617 8.69138C11.4869 8.63068 11.4998 8.56561 11.4998 8.49991C11.4998 8.4342 11.4869 8.36914 11.4617 8.30844C11.4365 8.24774 11.3997 8.19259 11.3532 8.14616Z" fill="#FEFEFE"/>
</svg>
