<svg width="32" height="32" viewBox="0 0 32 32" fill="none" xmlns="http://www.w3.org/2000/svg">
<rect width="32" height="32" rx="16" fill="white"/>
<rect x="0.2" y="0.2" width="31.6" height="31.6" rx="15.8" stroke="#4E59C0" stroke-opacity="0.5" stroke-width="0.4"/>
<path d="M25.7501 24.2499H21.1901C23.177 22.9981 24.645 21.071 25.3242 18.8231C26.0033 16.5751 25.8479 14.1575 24.8866 12.015C23.9252 9.87251 22.2226 8.14919 20.0918 7.16208C17.961 6.17496 15.5455 5.99044 13.2895 6.64246C11.0335 7.29447 9.08887 8.73917 7.81324 10.7108C6.5376 12.6824 6.0168 15.0484 6.34663 17.3734C6.67646 19.6984 7.83475 21.8261 9.60841 23.3652C11.3821 24.9042 13.6518 25.7511 16.0001 25.7499H25.7501C25.949 25.7499 26.1398 25.6709 26.2805 25.5302C26.4211 25.3896 26.5001 25.1988 26.5001 24.9999C26.5001 24.801 26.4211 24.6102 26.2805 24.4696C26.1398 24.3289 25.949 24.2499 25.7501 24.2499ZM11.5001 17.8749C11.1293 17.8749 10.7668 17.7649 10.4584 17.5589C10.1501 17.3529 9.90978 17.0601 9.76786 16.7174C9.62595 16.3748 9.58882 15.9978 9.66116 15.6341C9.73351 15.2704 9.91209 14.9363 10.1743 14.6741C10.4365 14.4119 10.7706 14.2333 11.1343 14.1609C11.4981 14.0886 11.8751 14.1257 12.2177 14.2676C12.5603 14.4095 12.8531 14.6499 13.0591 14.9582C13.2652 15.2666 13.3751 15.6291 13.3751 15.9999C13.3751 16.4972 13.1776 16.9741 12.826 17.3257C12.4743 17.6774 11.9974 17.8749 11.5001 17.8749ZM16.0001 22.3749C15.6293 22.3749 15.2668 22.2649 14.9584 22.0589C14.6501 21.8529 14.4098 21.5601 14.2679 21.2174C14.1259 20.8748 14.0888 20.4978 14.1612 20.1341C14.2335 19.7704 14.4121 19.4363 14.6743 19.1741C14.9365 18.9119 15.2706 18.7333 15.6343 18.6609C15.9981 18.5886 16.3751 18.6257 16.7177 18.7676C17.0603 18.9095 17.3531 19.1499 17.5591 19.4582C17.7652 19.7666 17.8751 20.1291 17.8751 20.4999C17.8751 20.9972 17.6776 21.4741 17.326 21.8257C16.9743 22.1774 16.4974 22.3749 16.0001 22.3749ZM16.0001 13.3749C15.6293 13.3749 15.2668 13.2649 14.9584 13.0589C14.6501 12.8529 14.4098 12.5601 14.2679 12.2174C14.1259 11.8748 14.0888 11.4978 14.1612 11.1341C14.2335 10.7704 14.4121 10.4363 14.6743 10.1741C14.9365 9.91186 15.2706 9.73328 15.6343 9.66094C15.9981 9.58859 16.3751 9.62572 16.7177 9.76763C17.0603 9.90955 17.3531 10.1499 17.5591 10.4582C17.7652 10.7666 17.8751 11.1291 17.8751 11.4999C17.8751 11.9972 17.6776 12.4741 17.326 12.8257C16.9743 13.1774 16.4974 13.3749 16.0001 13.3749ZM18.6251 15.9999C18.6251 15.6291 18.7351 15.2666 18.9411 14.9582C19.1472 14.6499 19.44 14.4095 19.7826 14.2676C20.1252 14.1257 20.5022 14.0886 20.8659 14.1609C21.2296 14.2333 21.5637 14.4119 21.826 14.6741C22.0882 14.9363 22.2668 15.2704 22.3391 15.6341C22.4115 15.9978 22.3743 16.3748 22.2324 16.7174C22.0905 17.0601 21.8502 17.3529 21.5418 17.5589C21.2335 17.7649 20.871 17.8749 20.5001 17.8749C20.0029 17.8749 19.5259 17.6774 19.1743 17.3257C18.8227 16.9741 18.6251 16.4972 18.6251 15.9999Z" fill="#4E59C0"/>
</svg>
