<svg width="18" height="18" viewBox="0 0 18 18" fill="none" xmlns="http://www.w3.org/2000/svg">
<path d="M16.7157 4.39052C16.6778 4.29681 16.6177 4.2137 16.5406 4.14831C16.4636 4.08292 16.3718 4.03721 16.2731 4.01508C16.1745 3.99296 16.072 3.99509 15.9743 4.02129C15.8767 4.04749 15.7869 4.09698 15.7126 4.16552L12.5642 7.07098L11.2181 6.78192L10.929 5.43583L13.8345 2.28739C13.903 2.21309 13.9525 2.12327 13.9787 2.02564C14.0049 1.92801 14.007 1.82549 13.9849 1.72685C13.9628 1.62822 13.9171 1.53642 13.8517 1.45934C13.7863 1.38225 13.7032 1.32218 13.6095 1.28427C12.7555 0.938824 11.8298 0.808394 10.9136 0.904437C9.99746 1.00048 9.11891 1.32006 8.35516 1.83509C7.59141 2.35012 6.96583 3.04484 6.5334 3.85821C6.10097 4.67158 5.87491 5.57871 5.87509 6.49989C5.87408 7.27777 6.03366 8.04747 6.34384 8.76083L1.63993 12.828C1.62822 12.8374 1.61728 12.8483 1.60634 12.8585C1.13745 13.3274 0.874023 13.9633 0.874023 14.6265C0.874023 14.9548 0.938695 15.2799 1.06435 15.5833C1.19 15.8866 1.37417 16.1622 1.60634 16.3944C1.83851 16.6266 2.11414 16.8108 2.41749 16.9364C2.72084 17.0621 3.04597 17.1267 3.37431 17.1267C4.03743 17.1267 4.67338 16.8633 5.14228 16.3944C5.15243 16.3843 5.16337 16.3725 5.17275 16.3616L9.23915 11.6561C10.0957 12.0322 11.0326 12.1886 11.9649 12.1113C12.8971 12.034 13.7954 11.7254 14.5784 11.2135C15.3614 10.7015 16.0043 10.0024 16.449 9.17935C16.8936 8.35632 17.126 7.43537 17.1251 6.49989C17.1263 5.77691 16.9873 5.06056 16.7157 4.39052ZM11.5001 10.8749C10.7603 10.8739 10.0328 10.6857 9.38525 10.328C9.25979 10.2587 9.11433 10.2346 8.97324 10.2598C8.83214 10.285 8.70399 10.3579 8.61025 10.4663L4.24306 15.5241C4.00673 15.7486 3.69204 15.872 3.36609 15.8678C3.04014 15.8636 2.72871 15.7323 2.49821 15.5018C2.26771 15.2713 2.13637 14.9598 2.1322 14.6339C2.12802 14.3079 2.25135 13.9932 2.47587 13.7569L7.52978 9.39052C7.63838 9.29673 7.7114 9.16843 7.73658 9.02716C7.76176 8.8859 7.73757 8.74027 7.66806 8.61474C7.26964 7.89414 7.08267 7.07574 7.12863 6.25363C7.17459 5.43151 7.45162 4.63905 7.92787 3.96735C8.40412 3.29566 9.06026 2.772 9.82084 2.45657C10.5814 2.14114 11.4156 2.04676 12.2274 2.18427L9.78993 4.82567C9.72211 4.89925 9.67295 4.98803 9.64657 5.08455C9.6202 5.18108 9.61739 5.28252 9.63837 5.38036L10.0806 7.43739C10.1059 7.55504 10.1646 7.66289 10.2497 7.74798C10.3348 7.83307 10.4426 7.89179 10.5602 7.91708L12.6188 8.35927C12.7167 8.38025 12.8181 8.37744 12.9146 8.35106C13.0112 8.32469 13.1 8.27553 13.1735 8.2077L15.8149 5.7702C15.9202 6.39755 15.8876 7.04031 15.7193 7.65378C15.5511 8.26724 15.2512 8.83669 14.8405 9.32251C14.4299 9.80833 13.9183 10.1989 13.3414 10.467C12.7646 10.735 12.1362 10.8742 11.5001 10.8749Z" fill="#121212"/>
</svg>
