<svg width="72" height="72" viewBox="0 0 72 72" fill="none" xmlns="http://www.w3.org/2000/svg">
<g filter="url(#filter0_dd_2829_15075)">
<rect x="20" width="32" height="32" rx="16" fill="#16A085" fill-opacity="0.1"/>
<rect x="20.25" y="0.25" width="31.5" height="31.5" rx="15.75" stroke="#16A085" stroke-opacity="0.3" stroke-width="0.5"/>
<path d="M40.5 7C38.5678 7 36.9113 8.7025 36 11.2984C35.0887 8.7025 33.4322 7 31.5 7C28.5563 7 26.25 10.9534 26.25 16C26.25 21.0466 28.5563 25 31.5 25C33.4322 25 35.0887 23.2975 36 20.7016C36.9113 23.2975 38.5678 25 40.5 25C43.4438 25 45.75 21.0466 45.75 16C45.75 10.9534 43.4438 7 40.5 7ZM34.0237 21.4741C33.3216 22.7612 32.4019 23.5 31.5 23.5C30.5981 23.5 29.6784 22.7612 28.9763 21.4741C28.5223 20.6132 28.1988 19.6897 28.0163 18.7338C28.4732 18.9403 28.9746 19.029 29.4746 18.9917C29.9746 18.9545 30.4574 18.7925 30.8787 18.5206C31.3 18.2487 31.6464 17.8755 31.8863 17.4352C32.1261 16.9948 32.2518 16.5014 32.2518 16C32.2518 15.4986 32.1261 15.0052 31.8863 14.5648C31.6464 14.1245 31.3 13.7513 30.8787 13.4794C30.4574 13.2075 29.9746 13.0455 29.4746 13.0083C28.9746 12.971 28.4732 13.0597 28.0163 13.2662C28.1988 12.3103 28.5223 11.3868 28.9763 10.5259C29.6784 9.23875 30.5981 8.5 31.5 8.5C32.4019 8.5 33.3216 9.23875 34.0237 10.5259C34.8141 11.9753 35.25 13.9197 35.25 16C35.25 18.0803 34.8141 20.0247 34.0237 21.4741ZM43.0238 21.4741C42.3216 22.7612 41.4019 23.5 40.5 23.5C39.5981 23.5 38.6784 22.7612 37.9762 21.4741C37.5223 20.6132 37.1988 19.6897 37.0162 18.7338C37.4732 18.9403 37.9746 19.029 38.4746 18.9917C38.9746 18.9545 39.4574 18.7925 39.8787 18.5206C40.3 18.2487 40.6464 17.8755 40.8863 17.4352C41.1261 16.9948 41.2518 16.5014 41.2518 16C41.2518 15.4986 41.1261 15.0052 40.8863 14.5648C40.6464 14.1245 40.3 13.7513 39.8787 13.4794C39.4574 13.2075 38.9746 13.0455 38.4746 13.0083C37.9746 12.971 37.4732 13.0597 37.0162 13.2662C37.1988 12.3103 37.5223 11.3868 37.9762 10.5259C38.6784 9.23875 39.5981 8.5 40.5 8.5C41.4019 8.5 42.3216 9.23875 43.0238 10.5259C43.8141 11.9753 44.25 13.9197 44.25 16C44.25 18.0803 43.8141 20.0247 43.0238 21.4741Z" fill="#16A085"/>
</g>
<defs>
<filter id="filter0_dd_2829_15075" x="0" y="0" width="72" height="72" filterUnits="userSpaceOnUse" color-interpolation-filters="sRGB">
<feFlood flood-opacity="0" result="BackgroundImageFix"/>
<feColorMatrix in="SourceAlpha" type="matrix" values="0 0 0 0 0 0 0 0 0 0 0 0 0 0 0 0 0 0 127 0" result="hardAlpha"/>
<feMorphology radius="4" operator="erode" in="SourceAlpha" result="effect1_dropShadow_2829_15075"/>
<feOffset dy="8"/>
<feGaussianBlur stdDeviation="4"/>
<feColorMatrix type="matrix" values="0 0 0 0 0.0392157 0 0 0 0 0.0496732 0 0 0 0 0.0705882 0 0 0 0.03 0"/>
<feBlend mode="normal" in2="BackgroundImageFix" result="effect1_dropShadow_2829_15075"/>
<feColorMatrix in="SourceAlpha" type="matrix" values="0 0 0 0 0 0 0 0 0 0 0 0 0 0 0 0 0 0 127 0" result="hardAlpha"/>
<feMorphology radius="4" operator="erode" in="SourceAlpha" result="effect2_dropShadow_2829_15075"/>
<feOffset dy="20"/>
<feGaussianBlur stdDeviation="12"/>
<feColorMatrix type="matrix" values="0 0 0 0 0.0392157 0 0 0 0 0.0496732 0 0 0 0 0.0705882 0 0 0 0.08 0"/>
<feBlend mode="normal" in2="effect1_dropShadow_2829_15075" result="effect2_dropShadow_2829_15075"/>
<feBlend mode="normal" in="SourceGraphic" in2="effect2_dropShadow_2829_15075" result="shape"/>
</filter>
</defs>
</svg>
