<svg width="12" height="13" viewBox="0 0 12 13" fill="none" xmlns="http://www.w3.org/2000/svg">
<path d="M1.14625 5.85375C1.07624 5.78382 1.02856 5.6947 1.00924 5.59765C0.98991 5.50061 0.999812 5.40002 1.03769 5.3086C1.07556 5.21719 1.13971 5.13908 1.22201 5.08414C1.30431 5.0292 1.40105 4.99992 1.5 5H5.5V0.5C5.5 0.367392 5.55268 0.240215 5.64645 0.146447C5.74021 0.0526784 5.86739 0 6 0C6.13261 0 6.25979 0.0526784 6.35355 0.146447C6.44732 0.240215 6.5 0.367392 6.5 0.5V5H10.5C10.5989 4.99992 10.6957 5.0292 10.778 5.08414C10.8603 5.13908 10.9244 5.21719 10.9623 5.3086C11.0002 5.40002 11.0101 5.50061 10.9908 5.59765C10.9714 5.6947 10.9238 5.78382 10.8538 5.85375L6.35375 10.3538C6.30731 10.4002 6.25217 10.4371 6.19147 10.4623C6.13077 10.4874 6.06571 10.5004 6 10.5004C5.93429 10.5004 5.86923 10.4874 5.80853 10.4623C5.74783 10.4371 5.69269 10.4002 5.64625 10.3538L1.14625 5.85375ZM11.5 11.5H0.5C0.367392 11.5 0.240215 11.5527 0.146447 11.6464C0.0526785 11.7402 0 11.8674 0 12C0 12.1326 0.0526785 12.2598 0.146447 12.3536C0.240215 12.4473 0.367392 12.5 0.5 12.5H11.5C11.6326 12.5 11.7598 12.4473 11.8536 12.3536C11.9473 12.2598 12 12.1326 12 12C12 11.8674 11.9473 11.7402 11.8536 11.6464C11.7598 11.5527 11.6326 11.5 11.5 11.5Z" fill="#5604F6"/>
</svg>
