<svg width="32" height="32" viewBox="0 0 32 32" fill="none" xmlns="http://www.w3.org/2000/svg">
<rect width="32" height="32" rx="16" fill="#1D9E34" fill-opacity="0.15"/>
<path d="M23.3333 10.6667H10C9.82319 10.6667 9.65362 10.5964 9.5286 10.4714C9.40357 10.3464 9.33333 10.1768 9.33333 10C9.33333 9.82319 9.40357 9.65362 9.5286 9.5286C9.65362 9.40357 9.82319 9.33333 10 9.33333H21.3333C21.5101 9.33333 21.6797 9.2631 21.8047 9.13807C21.9298 9.01305 22 8.84348 22 8.66667C22 8.48986 21.9298 8.32029 21.8047 8.19526C21.6797 8.07024 21.5101 8 21.3333 8H10C9.46957 8 8.96086 8.21071 8.58579 8.58579C8.21071 8.96086 8 9.46957 8 10V20.6667C8 21.1971 8.21071 21.7058 8.58579 22.0809C8.96086 22.456 9.46957 22.6667 10 22.6667H23.3333C23.687 22.6667 24.0261 22.5262 24.2761 22.2761C24.5262 22.0261 24.6667 21.687 24.6667 21.3333V12C24.6667 11.6464 24.5262 11.3072 24.2761 11.0572C24.0261 10.8071 23.687 10.6667 23.3333 10.6667ZM20.3333 17.3333C20.1356 17.3333 19.9422 17.2747 19.7778 17.1648C19.6133 17.0549 19.4851 16.8987 19.4095 16.716C19.3338 16.5333 19.314 16.3322 19.3525 16.1382C19.3911 15.9443 19.4864 15.7661 19.6262 15.6262C19.7661 15.4864 19.9443 15.3911 20.1382 15.3525C20.3322 15.314 20.5333 15.3338 20.716 15.4095C20.8987 15.4851 21.0549 15.6133 21.1648 15.7778C21.2747 15.9422 21.3333 16.1356 21.3333 16.3333C21.3333 16.5985 21.228 16.8529 21.0404 17.0404C20.8529 17.228 20.5985 17.3333 20.3333 17.3333Z" fill="#1D9E34"/>
</svg>
